<svg width="224" height="82" viewBox="0 0 224 82" fill="none" xmlns="http://www.w3.org/2000/svg">
<path d="M8.36151 67V16.8182H28.4538C32.1456 16.8182 35.2248 17.3654 37.6914 18.4599C40.158 19.5543 42.0121 21.0735 43.2536 23.0174C44.495 24.945 45.1158 27.1665 45.1158 29.6822C45.1158 31.6424 44.7237 33.3658 43.9396 34.8523C43.1555 36.3224 42.0774 37.5312 40.7053 38.4787C39.3494 39.4098 37.7976 40.0714 36.0497 40.4634V40.9535C37.9609 41.0352 39.7496 41.5742 41.4158 42.5707C43.0984 43.5671 44.4624 44.9638 45.5078 46.7607C46.5533 48.5412 47.076 50.6648 47.076 53.1314C47.076 55.794 46.4144 58.1708 45.0913 60.2617C43.7844 62.3363 41.8487 63.978 39.2841 65.1868C36.7195 66.3956 33.5586 67 29.8015 67H8.36151ZM18.9712 58.326H27.6207C30.5774 58.326 32.7337 57.7624 34.0895 56.6353C35.4453 55.4918 36.1232 53.9727 36.1232 52.0778C36.1232 50.6893 35.7884 49.4641 35.1186 48.4023C34.4489 47.3406 33.4933 46.5075 32.2518 45.9031C31.0266 45.2986 29.5646 44.9964 27.8658 44.9964H18.9712V58.326ZM18.9712 37.8171H26.8366C28.2905 37.8171 29.581 37.5639 30.7081 37.0575C31.8516 36.5348 32.75 35.7997 33.4034 34.8523C34.0732 33.9048 34.408 32.7695 34.408 31.4464C34.408 29.6332 33.7628 28.1712 32.4723 27.0604C31.1982 25.9496 29.3849 25.3942 27.0327 25.3942H18.9712V37.8171ZM77.9189 50.9751V29.3636H88.3572V67H78.3355V60.1637H77.9434C77.094 62.369 75.681 64.1413 73.7045 65.4808C71.7442 66.8203 69.3511 67.4901 66.5251 67.4901C64.0095 67.4901 61.7961 66.9183 59.8849 65.7749C57.9736 64.6314 56.479 63.006 55.4008 60.8988C54.339 58.7915 53.8 56.2678 53.7836 53.3274V29.3636H64.2219V51.4652C64.2382 53.6868 64.8344 55.4428 66.0106 56.7333C67.1867 58.0238 68.7631 58.669 70.7396 58.669C71.9974 58.669 73.1736 58.3832 74.268 57.8114C75.3625 57.2234 76.2446 56.3576 76.9143 55.2141C77.6004 54.0707 77.9353 52.6577 77.9189 50.9751ZM96.7065 67V29.3636H107.145V67H96.7065ZM101.95 24.5121C100.398 24.5121 99.0669 23.9975 97.9561 22.9684C96.8617 21.9229 96.3145 20.6733 96.3145 19.2195C96.3145 17.782 96.8617 16.5486 97.9561 15.5195C99.0669 14.4741 100.398 13.9513 101.95 13.9513C103.502 13.9513 104.825 14.4741 105.92 15.5195C107.03 16.5486 107.586 17.782 107.586 19.2195C107.586 20.6733 107.03 21.9229 105.92 22.9684C104.825 23.9975 103.502 24.5121 101.95 24.5121ZM125.945 16.8182V67H115.506V16.8182H125.945ZM148.175 67.6126C145.316 67.6126 142.727 66.8775 140.407 65.4073C138.104 63.9208 136.275 61.7401 134.919 58.8651C133.579 55.9737 132.909 52.429 132.909 48.2308C132.909 43.9183 133.604 40.3327 134.992 37.4741C136.381 34.5991 138.227 32.451 140.53 31.0298C142.849 29.5923 145.39 28.8736 148.15 28.8736C150.257 28.8736 152.013 29.233 153.418 29.9517C154.839 30.6541 155.983 31.5362 156.849 32.598C157.731 33.6435 158.401 34.6726 158.858 35.6854H159.176V16.8182H169.59V67H159.299V60.9723H158.858C158.368 62.0178 157.674 63.055 156.775 64.0842C155.893 65.0969 154.741 65.9382 153.32 66.608C151.915 67.2777 150.2 67.6126 148.175 67.6126ZM151.483 59.3061C153.165 59.3061 154.586 58.8487 155.746 57.9339C156.922 57.0028 157.821 55.7042 158.441 54.038C159.078 52.3718 159.397 50.4197 159.397 48.1818C159.397 45.9439 159.087 44 158.466 42.3501C157.845 40.7003 156.947 39.4261 155.771 38.5277C154.594 37.6293 153.165 37.18 151.483 37.18C149.767 37.18 148.322 37.6456 147.146 38.5767C145.969 39.5078 145.079 40.7983 144.475 42.4482C143.87 44.098 143.568 46.0092 143.568 48.1818C143.568 50.3707 143.87 52.3065 144.475 53.989C145.096 55.6552 145.986 56.962 147.146 57.9094C148.322 58.8406 149.767 59.3061 151.483 59.3061Z" fill="white"/>
<path d="M178.172 67V29.3636H188.611V67H178.172ZM183.416 24.5121C181.864 24.5121 180.533 23.9975 179.422 22.9684C178.328 21.9229 177.78 20.6733 177.78 19.2195C177.78 17.782 178.328 16.5486 179.422 15.5195C180.533 14.4741 181.864 13.9513 183.416 13.9513C184.968 13.9513 186.291 14.4741 187.385 15.5195C188.496 16.5486 189.052 17.782 189.052 19.2195C189.052 20.6733 188.496 21.9229 187.385 22.9684C186.291 23.9975 184.968 24.5121 183.416 24.5121ZM212.851 29.3636V37.2045H190.186V29.3636H212.851ZM195.331 20.3466H205.77V55.4347C205.77 56.3984 205.917 57.1499 206.211 57.6889C206.505 58.2116 206.913 58.5792 207.436 58.7915C207.975 59.0039 208.596 59.1101 209.298 59.1101C209.788 59.1101 210.278 59.0692 210.768 58.9876C211.258 58.8896 211.634 58.8161 211.895 58.767L213.537 66.5344C213.014 66.6978 212.279 66.8857 211.332 67.098C210.384 67.3267 209.233 67.4656 207.877 67.5146C205.361 67.6126 203.156 67.2777 201.261 66.5099C199.383 65.7422 197.921 64.5497 196.875 62.9325C195.83 61.3153 195.315 59.2734 195.331 56.8068V20.3466Z" fill="#3FD2C7"/>
<path d="M102.211 18.6737C102.294 18.7669 102.754 19.9598 102.914 19.3213C103.021 18.8936 103.038 18.4904 103.038 18.0536C103.038 17.671 102.027 17.8058 101.724 17.8607C100.778 18.0327 100.171 18.62 99.777 19.4637C99.6156 19.8096 99.5359 20.2248 99.8597 20.4099C100.001 20.4907 100.109 20.4925 100.268 20.4925C100.435 20.4925 100.499 20.6579 100.691 20.6579C101.241 20.6579 101.552 20.6724 101.917 20.2032C102.092 19.9784 101.963 19.3155 101.963 19.0411C101.963 18.0738 102.085 17.1855 100.889 17.1855C100.378 17.1855 99.92 17.5386 99.5474 17.9112C99.2941 18.1645 99.2742 18.4235 99.235 18.7564C99.2186 18.8963 99.0697 18.923 99.0697 19.1514C99.0697 19.2953 99.0697 19.4392 99.0697 19.5831C99.0697 19.8926 99.0125 20.2495 99.1524 20.5293C99.2518 20.7282 99.3076 20.9784 99.4647 21.1356C99.5688 21.2396 99.6366 21.4374 99.7311 21.4846" stroke="#3FD2C7" stroke-width="3" stroke-linecap="round"/>
<path d="M97.3083 19.1485C97.3083 19.2346 97.3285 19.3146 97.3285 19.4003C97.3285 19.4506 97.3285 19.501 97.3285 19.5514C97.3285 19.6636 97.2831 19.5289 97.2731 19.4876C97.2482 19.3854 97.2177 19.2894 97.2177 19.1838C97.2177 19.0955 97.1948 18.969 97.2278 18.8867" stroke="#3FD2C7" stroke-linecap="round"/>
<path d="M97.1271 18.7869C97.1229 18.8291 97.0912 18.8992 97.0723 18.9379C97.0501 18.9835 97.0231 19.0381 97.0158 19.089C97.0051 19.1638 96.9862 19.2516 96.9862 19.3267C96.9862 19.3721 96.9723 19.4368 96.961 19.4823C96.9504 19.5247 96.9651 19.5709 96.9537 19.6126C96.9455 19.6427 96.9358 19.6536 96.9358 19.6887C96.9358 19.7771 96.8955 19.702 96.8832 19.6529C96.8715 19.606 96.8452 19.5674 96.8452 19.5197C96.8452 19.4852 96.8452 19.4507 96.8452 19.4162C96.8452 19.3739 96.8368 19.324 96.8552 19.2848C96.8693 19.255 96.8855 19.2123 96.8855 19.1796C96.8855 19.1484 96.9056 19.1219 96.9056 19.089C96.9056 19.0686 96.9115 19.0271 96.9179 19.0062C96.933 18.957 96.9282 18.9031 96.9414 18.8523C96.9586 18.7861 96.995 18.7302 97.0164 18.666" stroke="#3FD2C7" stroke-linecap="round"/>
<path d="M97.2378 17.6191C97.2652 17.6226 97.2439 17.7605 97.2383 17.7853C97.2239 17.8501 97.1665 17.9437 97.1119 17.9861C97.0887 18.0042 97.0916 18.0026 97.0767 18.0309C97.064 18.0549 97.0411 18.0792 97.0369 18.1064C97.0356 18.1152 97.0404 18.1336 97.0341 18.1406C97.0136 18.1634 96.9961 18.23 96.9961 18.2636" stroke="#3FD2C7" stroke-linecap="round"/>
<path d="M98.5868 16.6011C98.5868 16.5 98.5989 16.8137 98.5499 16.9021C98.4872 17.0154 98.4153 17.1168 98.3396 17.221C98.301 17.274 98.2681 17.3179 98.2142 17.3564C98.145 17.4059 98.0942 17.4734 98.033 17.532C97.9387 17.6222 97.8581 17.7151 97.7863 17.8241C97.7834 17.8283 97.7314 17.906 97.7309 17.9058C97.7084 17.8945 97.7532 17.7572 97.76 17.7435C97.8024 17.6574 97.876 17.581 97.9339 17.5052C98.0089 17.4071 98.0775 17.303 98.1572 17.2087C98.3256 17.0094 98.509 16.822 98.7049 16.6498C98.8036 16.563 98.9035 16.4753 99.0087 16.3964C99.0371 16.375 99.0086 16.468 99.0008 16.5026C98.9607 16.6814 98.8429 16.8338 98.7273 16.9709C98.4768 17.2679 98.1706 17.502 97.8629 17.7351C97.8591 17.738 97.7704 17.8111 97.7711 17.8039C97.7751 17.765 97.7953 17.7283 97.8137 17.6948C97.8659 17.5998 97.9266 17.5061 97.9927 17.4202C98.248 17.0884 98.5972 16.8503 98.8923 16.5586C98.962 16.4897 99.024 16.4116 99.0875 16.337C99.1167 16.3028 99.1445 16.2558 99.1793 16.2268C99.1889 16.2189 99.1709 16.2504 99.1653 16.2615C99.0799 16.4308 98.9718 16.5886 98.852 16.7354C98.6652 16.9643 98.4482 17.1776 98.2137 17.3581C98.1735 17.3889 98.1745 17.3651 98.1919 17.3273C98.2683 17.1612 98.3556 16.9905 98.4682 16.8462C98.6165 16.6561 98.8034 16.4973 98.965 16.3191C99.0101 16.2694 99.0491 16.2094 99.0881 16.1547C99.1567 16.0584 99.2348 15.973 99.3063 15.8811C99.3528 15.8212 99.4267 15.7358 99.4987 15.7015C99.5662 15.6694 99.4171 15.8287 99.3622 15.8794C99.321 15.9175 99.275 15.9503 99.2324 15.9868C99.2018 16.0131 99.1808 16.0474 99.1452 16.0674C99.0919 16.0972 99.0562 16.1397 98.9986 16.1642C98.9276 16.1944 98.8701 16.2498 98.7983 16.2777C98.7607 16.2924 98.7211 16.3089 98.6831 16.3197C98.6611 16.326 98.6659 16.3555 98.6551 16.3673C98.5825 16.4464 98.4854 16.5142 98.4207 16.6006C98.3974 16.6316 98.3626 16.6743 98.3351 16.7018" stroke="#3FD2C7" stroke-linecap="round"/>
<path d="M99.8963 17.6094C99.8604 17.6851 99.843 17.7615 99.7911 17.8298C99.7446 17.8912 99.7128 17.9606 99.6669 18.0223C99.6393 18.0594 99.6222 18.1018 99.5942 18.1386C99.5675 18.1737 99.5149 18.1926 99.4778 18.2136C99.4105 18.2518 99.339 18.2821 99.2697 18.3165C99.0425 18.4295 98.7733 18.4746 98.5268 18.5235C98.4234 18.544 98.3219 18.5395 98.2179 18.5481C98.1703 18.5521 98.1031 18.5816 98.0938 18.5258" stroke="#3FD2C7" stroke-linecap="square"/>
<path d="M103.461 15.5941C103.461 15.6572 103.461 15.7202 103.461 15.7832C103.461 15.8169 103.518 15.8293 103.423 15.8101C103.063 15.7374 102.715 15.6047 102.349 15.5662C102.295 15.5605 102.202 15.5867 102.18 15.5214C102.168 15.4862 102.172 15.4488 102.172 15.4117C102.172 15.3211 102.165 15.2364 102.201 15.1561C102.239 15.0701 101.909 15.1285 101.883 15.1315C101.694 15.1523 101.497 15.1704 101.312 15.2109C101.24 15.2266 101.164 15.2285 101.093 15.2428C101.05 15.2513 101.011 15.2673 100.967 15.2724C100.859 15.2852 100.764 15.3434 100.661 15.3726C100.58 15.3959 100.546 15.4879 100.49 15.5438" stroke="#3FD2C7" stroke-linecap="square"/>
<path d="M102.091 14.5676C102.086 14.5456 101.865 14.6466 101.827 14.6481C101.776 14.6502 101.73 14.6683 101.678 14.6683C101.634 14.6683 101.58 14.6716 101.542 14.6962C101.507 14.7189 101.467 14.707 101.432 14.7231C101.398 14.7391 101.354 14.7589 101.316 14.7589C101.274 14.7589 101.251 14.7891 101.207 14.7891C101.165 14.7891 101.106 14.7927 101.064 14.8042C100.97 14.8303 100.882 14.8345 100.793 14.8747C100.704 14.9148 100.622 14.9606 100.535 15.0006C100.338 15.0913 100.125 15.142 99.9296 15.2322C99.8221 15.2818 99.7182 15.3341 99.6096 15.3788C99.5654 15.397 99.5248 15.4261 99.4826 15.4493C99.4544 15.4648 99.4183 15.518 99.387 15.5237C99.3144 15.5369 99.2457 15.6036 99.1805 15.6395C99.0677 15.7015 98.9557 15.7652 98.851 15.8364C98.7831 15.8826 98.7369 15.9576 98.6653 16.0009C98.5728 16.0568 98.4837 16.1373 98.4006 16.2096C98.3264 16.2742 98.2411 16.3233 98.178 16.4009C98.1419 16.4453 98.0923 16.4811 98.0588 16.5268C98.0381 16.555 98.0126 16.6118 97.9727 16.6118" stroke="#3FD2C7" stroke-linecap="square"/>
<path d="M105.414 16.3897C105.398 16.4774 105.354 16.5592 105.354 16.647C105.354 16.6772 105.342 16.7349 105.328 16.7623C105.302 16.8158 105.269 16.8666 105.239 16.9183C105.209 16.9692 105.173 17.038 105.117 17.0593C105.068 17.0783 105 17.1081 104.962 17.0537C104.905 16.9714 104.877 16.8652 104.87 16.7673C104.867 16.7227 104.851 16.6827 104.851 16.6369C104.851 16.5931 104.851 16.5493 104.851 16.5055C104.851 16.4551 104.851 16.4048 104.851 16.3544C104.851 16.2749 104.857 16.1923 104.85 16.1133C104.849 16.0999 104.834 16.0138 104.825 16.007C104.813 15.997 104.802 15.9771 104.798 15.9622C104.79 15.9366 104.767 15.9295 104.755 15.9063C104.736 15.868 104.686 15.8356 104.645 15.8257C104.612 15.8181 104.571 15.7973 104.543 15.7799C104.52 15.7659 104.491 15.7719 104.472 15.7552C104.432 15.7188 104.332 15.7071 104.28 15.6898C104.118 15.6358 103.947 15.6153 103.78 15.5835C103.391 15.5094 102.997 15.5091 102.614 15.6154C102.15 15.7441 101.4 15.9271 101.379 16.5228C101.37 16.7739 101.457 17.0146 101.608 17.2137C101.671 17.2974 101.743 17.3439 101.846 17.3648C102.078 17.4119 102.329 17.4055 102.56 17.3508C102.977 17.2519 103.452 17.0568 103.695 16.6834C103.759 16.5846 103.8 16.4431 103.766 16.3248C103.707 16.1159 103.366 16.1179 103.202 16.1172C103.025 16.1164 102.851 16.1449 102.696 16.2364C102.482 16.3621 102.322 16.5707 102.214 16.7902C102.146 16.9303 101.965 17.2707 102.175 17.3788C102.3 17.4434 102.467 17.4194 102.6 17.4062C102.887 17.3777 103.209 17.3356 103.465 17.1942C103.652 17.0912 103.859 16.7881 103.636 16.6101C103.527 16.5231 103.368 16.5246 103.237 16.5346C103.002 16.5524 102.772 16.6232 102.65 16.8395C102.574 16.9722 102.519 17.1521 102.557 17.3049C102.614 17.5355 102.851 17.5566 103.05 17.5684C103.362 17.587 103.674 17.5712 103.979 17.5041C104.142 17.4684 104.289 17.4248 104.447 17.3721C104.585 17.3256 104.742 17.2763 104.863 17.1886C104.934 17.137 104.948 17.0416 104.941 16.9592C104.94 16.9553 104.937 16.929 104.926 16.9363C104.889 16.9606 104.9 17.1977 104.898 17.2199C104.871 17.4901 104.833 17.7595 104.792 18.0277C104.778 18.1243 104.763 18.2099 104.746 18.3052C104.742 18.3314 104.737 18.3574 104.732 18.3836C104.729 18.4038 104.736 18.4517 104.717 18.4434C104.69 18.4315 104.693 18.3887 104.683 18.3606C104.655 18.2814 104.628 18.2063 104.601 18.1262C104.503 17.8388 104.424 17.5466 104.337 17.2557C104.287 17.0866 104.228 16.9197 104.188 16.7477C104.164 16.6445 104.154 16.5366 104.127 16.4344C104.115 16.3918 104.137 16.5221 104.142 16.5659C104.176 16.8571 104.175 17.152 104.176 17.4448C104.176 17.5748 104.169 17.9645 104.176 17.8347C104.2 17.4498 104.31 17.0632 104.423 16.6962C104.447 16.6176 104.468 16.5388 104.488 16.459C104.489 16.4554 104.502 16.4128 104.503 16.4154C104.528 16.4748 104.515 16.59 104.518 16.6493C104.525 16.7895 104.541 16.9385 104.526 17.0789C104.521 17.1256 104.495 17.0652 104.491 17.0554C104.429 16.9 104.384 16.7325 104.351 16.5687C104.339 16.5049 104.329 16.4394 104.323 16.3746C104.322 16.3669 104.319 16.3589 104.321 16.3516C104.322 16.3478 104.326 16.3584 104.327 16.3623C104.366 16.4846 104.388 16.6189 104.41 16.7444C104.562 17.6421 104.531 18.5513 104.538 19.4577C104.539 19.4889 104.536 19.5412 104.553 19.4734C104.614 19.2265 104.688 18.9833 104.782 18.7466C104.927 18.3823 105.114 18.0364 105.294 17.6887" stroke="#3FD2C7"/>
<path d="M99.7249 16.47C99.8129 16.2814 99.9472 16.1219 100.075 15.9621C100.126 15.8986 100.167 15.8181 100.206 15.7472C100.233 15.6981 100.316 15.5971 100.211 15.6756C99.8283 15.9593 99.4184 16.1876 98.9998 16.413C98.7749 16.5341 98.5555 16.6638 98.3341 16.7912C98.2136 16.8605 98.0869 16.9228 97.9727 17.0026C97.8764 17.0699 97.872 17.1913 97.872 17.3008C97.872 17.4974 97.8851 17.7009 97.8037 17.8855C97.7637 17.9764 97.716 18.0856 97.6986 18.1842C97.6892 18.2367 97.6687 18.2846 97.6426 18.3308C97.629 18.3549 97.6253 18.3872 97.6051 18.4074C97.5968 18.4157 97.5971 18.4112 97.5917 18.3957C97.5756 18.3496 97.5631 18.286 97.5553 18.2418C97.5285 18.0887 97.5195 17.936 97.5195 17.7808C97.5195 17.7223 97.5204 17.6679 97.529 17.6119C97.5391 17.5467 97.5553 17.4766 97.5844 17.4166C97.6178 17.3479 97.6417 17.2819 97.6751 17.2057C97.6892 17.1733 97.6918 17.1333 97.7014 17.1C97.705 17.0871 97.7209 17.0994 97.7209 17.0793C97.7209 17.0605 97.7402 17.0579 97.7411 17.0362C97.7422 17.0069 97.7762 16.9978 97.7814 16.9635C97.7848 16.9405 97.8111 16.9313 97.8194 16.9109C97.8306 16.8834 97.8477 16.8622 97.8614 16.837C97.908 16.7516 97.9495 16.654 98.0074 16.5758C98.0464 16.5229 98.0601 16.4627 98.1058 16.4119C98.1256 16.3899 98.1433 16.3415 98.1741 16.3313C98.2089 16.3197 98.2427 16.2795 98.2686 16.2535C98.3222 16.1999 98.3518 16.1183 98.4001 16.0672C98.4308 16.0347 98.4801 16.0104 98.5165 15.9844C98.5449 15.9642 98.572 15.9424 98.6026 15.9257C98.6698 15.8891 98.7091 15.8303 98.7716 15.7853C98.7868 15.7743 98.7834 15.7525 98.7984 15.7427C98.8096 15.7355 98.8245 15.7263 98.8309 15.7148C98.8502 15.68 98.8917 15.6704 98.9092 15.6398C98.9229 15.6158 98.9721 15.6101 98.9909 15.5889C99.0161 15.5605 99.0591 15.5554 99.0804 15.5234" stroke="#3FD2C7" stroke-linecap="square"/>
<path d="M99.0807 15.5449C99.1 15.5449 99.0435 15.555 99.0259 15.5628C99.0021 15.5734 98.9934 15.5727 98.9722 15.593C98.957 15.6076 98.9428 15.5994 98.9274 15.6098C98.8987 15.6294 98.8818 15.6559 98.8514 15.6758C98.8279 15.6912 98.8098 15.7245 98.7786 15.7262C98.7501 15.7278 98.7307 15.7621 98.7081 15.7821C98.6928 15.7957 98.6639 15.7978 98.6455 15.8146C98.591 15.8641 98.5571 15.8975 98.509 15.95C98.4599 16.0035 98.4222 16.0606 98.3579 16.1044C98.3115 16.1359 98.238 16.188 98.2046 16.2319C98.1885 16.2532 98.1596 16.2474 98.1442 16.2666C98.1267 16.2885 98.1041 16.3057 98.0838 16.3259C98.0591 16.3506 98.0096 16.3967 97.9764 16.4087C97.9064 16.4339 97.8891 16.5264 97.832 16.5721" stroke="#3FD2C7" stroke-linecap="square"/>
<path d="M102.817 15.0003L102.807 14.9902" stroke="#3FD2C7" stroke-linecap="square"/>
<path d="M103.846 20.0933C103.768 20.5651 103.659 21.0395 103.519 21.4966C103.468 21.6645 103.385 21.8235 103.351 21.9968C103.33 22.1092 103.332 22.1102 103.486 22.0885C103.57 22.0767 103.788 21.9859 103.717 21.8551C103.678 21.7844 103.543 21.7949 103.479 21.7939C103.145 21.789 102.825 21.8219 102.498 21.894C101.979 22.0086 101.453 22.1322 100.945 22.2886C100.909 22.2996 100.484 22.4134 100.5 22.4317C100.564 22.504 100.802 22.4848 100.884 22.4887C101.125 22.5001 101.389 22.5177 101.628 22.4775C101.738 22.4592 101.838 22.412 101.947 22.3928C102.029 22.3782 102.065 22.3219 102.134 22.2969C102.201 22.2727 102.298 22.2759 102.368 22.2636C102.625 22.2178 102.883 22.1835 103.141 22.1441C103.329 22.1155 103.519 22.0901 103.704 22.0496C103.787 22.0316 103.851 21.9483 103.915 21.8995C104.19 21.6929 104.52 21.5663 104.785 21.3438C105.015 21.1509 105.219 20.9269 105.447 20.731C105.657 20.55 105.793 20.2742 105.797 19.9932C105.803 19.5658 105.967 19.1491 105.972 18.7177C105.975 18.4397 105.997 18.1612 105.997 17.8813C105.997 17.788 106.052 17.7629 106.07 17.8758C106.113 18.1297 106.144 18.3934 106.147 18.6511C106.149 18.833 106.197 19.0053 106.197 19.1874C106.197 19.4049 106.119 19.6213 106.022 19.8154C105.861 20.1376 105.667 20.4307 105.495 20.7463C105.323 21.062 105.089 21.3368 104.874 21.6244C104.695 21.8646 104.488 22.1747 104.257 22.3664C104.162 22.4454 104.198 22.2131 104.199 22.1872C104.214 21.8515 104.296 21.5411 104.421 21.2298C104.663 20.6273 104.952 20.0428 105.206 19.4458C105.264 19.31 105.286 19.1636 105.346 19.0304C105.369 18.9798 105.397 18.8265 105.416 18.8789C105.438 18.9421 105.369 19.1778 105.363 19.2013C105.25 19.6419 105.047 20.0387 104.816 20.4295C104.329 21.2532 103.81 22.1558 102.951 22.6387C102.92 22.6562 102.746 22.7767 102.701 22.7582C102.654 22.7389 102.662 22.5312 102.662 22.5303C102.655 22.2293 102.686 21.9298 102.751 21.6356C102.932 20.8114 103.281 20.0154 103.729 19.3041C103.745 19.2796 103.84 19.0536 103.844 19.1415C103.869 19.6582 103.765 20.1539 103.561 20.6282C103.409 20.9805 103.219 21.3201 103.018 21.6467C103.007 21.6636 102.98 21.7136 102.982 21.6939C102.991 21.5912 103.079 21.4503 103.125 21.3716C103.628 20.4989 104.363 19.7742 104.824 18.8761C104.873 18.7816 104.846 18.899 104.843 18.954C104.822 19.4234 104.7 19.8475 104.491 20.2684C104.188 20.8774 103.81 21.4259 103.401 21.9648C103.289 22.1134 103.203 22.2289 103.048 22.3303C102.852 22.4586 102.626 22.5255 102.423 22.6415C101.844 22.9723 101.012 22.9961 100.37 22.8555C100.216 22.8219 100.065 22.7875 99.9096 22.7582C99.8246 22.7421 99.8063 22.7018 99.7387 22.6943C99.6381 22.6831 99.5331 22.5429 99.4428 22.4942C99.3257 22.4312 99.2541 22.3578 99.1635 22.2636C99.117 22.2152 99.0591 22.1722 99.1246 22.2691C99.1897 22.3655 99.2715 22.4916 99.2927 22.6082C99.3151 22.7312 99.4395 22.8068 99.5248 22.8888C99.6005 22.9617 99.8501 23.0748 99.9485 23.0945C100.2 23.1447 100.393 23.3068 100.629 23.4029C100.896 23.5117 101.152 23.5967 101.439 23.6391C101.643 23.6691 101.865 23.6447 102.07 23.6447C102.465 23.6447 102.842 23.6591 103.221 23.5196C103.575 23.3891 103.914 23.2431 104.235 23.043C104.337 22.9793 104.646 22.8434 104.646 22.6943" stroke="#3FD2C7" stroke-linecap="square"/>
<path d="M104.596 22.5455C104.877 22.5455 105.204 22.1921 105.419 22.0314C105.545 21.9367 105.697 21.6924 105.697 21.5312C105.697 21.453 105.739 21.4114 105.772 21.345C105.817 21.2511 105.828 21.1584 105.891 21.0699C106.034 20.8709 106.179 20.6572 106.291 20.4447C106.47 20.1054 106.478 19.6957 106.522 19.3206C106.553 19.0544 106.597 18.7874 106.597 18.5189C106.597 18.3828 106.623 18.2205 106.572 18.0938" stroke="#3FD2C7" stroke-linecap="square"/>
<path d="M106.297 17.9922C106.366 18.3256 106.501 18.54 106.609 18.8425C106.687 19.0606 106.797 19.2424 106.797 19.4775C106.797 19.6935 106.822 19.9129 106.822 20.1319C106.822 20.3273 106.776 20.432 106.709 20.6057C106.698 20.6352 106.649 20.7016 106.647 20.7183C106.641 20.7738 106.603 20.783 106.598 20.8211C106.588 20.8943 106.497 21.0263 106.441 21.0878C106.375 21.1606 106.321 21.2743 106.245 21.331C106.162 21.3936 106.146 21.5416 106.06 21.5936C105.983 21.6404 105.958 21.7272 105.884 21.7784C105.86 21.7946 105.82 21.7823 105.802 21.7992C105.779 21.8199 105.768 21.867 105.746 21.8923C105.659 21.9923 105.573 22.0624 105.477 22.1494C105.297 22.3108 105.135 22.5592 104.896 22.619" stroke="#3FD2C7" stroke-linecap="round"/>
<path d="M99.2942 22.494C99.0306 22.2882 98.742 22.0985 98.487 21.8827C98.4628 21.8622 98.4458 21.8161 98.4286 21.7896C98.2467 21.5096 98.0372 21.2539 97.8728 20.9628C97.742 20.7311 97.6088 20.5015 97.481 20.2681C97.4023 20.1243 97.2934 19.9504 97.2934 19.7818C97.2934 19.652 97.2434 19.5595 97.2434 19.7554C97.2434 19.9041 97.2434 20.0528 97.2434 20.2014C97.2434 20.3648 97.22 20.5445 97.2448 20.7058C97.2664 20.8462 97.3935 21.0093 97.3935 21.1435C97.3935 21.2637 97.5144 21.499 97.5935 21.5825C97.7835 21.783 97.8501 22.1003 98.0437 22.2939" stroke="#3FD2C7" stroke-linecap="round"/>
<path d="M103.396 19.7443C103.772 19.3856 104.165 18.9263 104.39 18.4549C104.544 18.1335 104.638 17.7806 104.777 17.4518C104.852 17.2732 104.915 17.0784 105.035 16.9238C105.05 16.905 105.067 16.8696 105.07 16.9141C105.083 17.1243 105.072 17.3402 105.07 17.5504C105.062 18.2823 104.9 18.9492 104.69 19.6471C104.574 20.0357 104.47 20.4315 104.308 20.8045C104.182 21.0953 104.015 21.3642 103.885 21.6506C103.848 21.7319 103.778 21.8321 103.726 21.9063C103.666 21.9936 103.696 22.1453 103.696 22.2453C103.696 22.3167 103.683 22.4012 103.698 22.4704C103.701 22.4811 103.745 22.5786 103.758 22.576C103.784 22.5708 103.535 21.46 103.521 21.395" stroke="#3FD2C7" stroke-linecap="round"/>
<path d="M98.894 22.3691C99.0495 22.4884 99.2743 22.6319 99.3942 22.7818C99.4331 22.8304 99.5429 22.8471 99.5929 22.9055C99.6512 22.9734 99.7509 22.9937 99.8 23.0694C99.8271 23.1113 99.9989 23.2154 100.05 23.2195C100.118 23.2249 100.204 23.3008 100.282 23.3181C100.365 23.3365 100.438 23.3559 100.521 23.382C100.589 23.4032 100.651 23.4504 100.713 23.4696C100.833 23.5067 100.955 23.5123 101.07 23.5696" stroke="#3FD2C7" stroke-linecap="round"/>
<path d="M98.8188 22.4941C98.9138 22.5498 99.0632 22.6211 99.1245 22.7192C99.1314 22.7303 99.2188 22.7901 99.2315 22.7929C99.3158 22.8116 99.4557 22.979 99.5052 23.0555C99.5688 23.1538 99.6477 23.2199 99.7248 23.3C99.8172 23.3962 99.8973 23.4173 100.019 23.4751C100.088 23.5078 100.276 23.4564 100.321 23.5084C100.36 23.5541 100.441 23.5624 100.495 23.589C100.553 23.6181 100.564 23.6637 100.607 23.7071C100.799 23.8991 101.059 23.8697 101.32 23.8697" stroke="#3FD2C7" stroke-linecap="round"/>
<path d="M98.0938 21.8691C98.46 21.8765 98.5237 22.2614 98.644 22.5319C98.7367 22.7407 99.0497 22.8362 99.1191 23.0446" stroke="#3FD2C7" stroke-linecap="round"/>
<path d="M98.2935 22.1953C98.3766 22.2603 98.5808 22.4059 98.5936 22.5204C98.6019 22.5957 98.6767 22.7536 98.7297 22.8067C98.795 22.8719 98.8704 22.9575 98.9562 22.9956C99.0043 23.017 99.1103 23.005 99.1382 23.0456C99.1822 23.1096 99.3646 23.1707 99.4439 23.1707" stroke="#3FD2C7" stroke-linecap="round"/>
<path d="M106.447 19.0689C106.398 18.849 106.423 18.6173 106.391 18.3936C106.367 18.2231 106.344 18.0348 106.302 17.8684C106.214 17.5168 106.118 17.2395 105.833 16.9987C105.386 16.622 104.839 16.3357 104.49 15.8538C104.401 15.7298 104.118 15.368 104.207 15.4925C104.565 15.9935 104.865 16.4867 105.11 17.0542C105.225 17.3209 105.386 17.5942 105.527 17.849C105.571 17.928 105.609 17.9991 105.669 18.0671C105.709 18.1137 105.695 18.1777 105.721 18.2325C105.781 18.3558 105.775 18.4513 105.771 18.5993C105.762 18.9874 105.571 19.4392 105.385 19.7747C105.251 20.0165 105.084 20.2452 104.932 20.475C104.751 20.7478 104.605 21.0443 104.39 21.2948C104.187 21.5322 103.989 21.7797 103.776 22.0089C103.661 22.1335 103.553 22.1901 103.396 22.1451" stroke="#3FD2C7" stroke-linecap="round"/>
<path d="M101.295 23.8959C101.573 23.8959 101.803 23.885 102.045 23.7709C102.206 23.6952 102.465 23.7028 102.64 23.6958C102.817 23.6888 103.036 23.6862 103.196 23.6153C103.28 23.578 103.39 23.5958 103.482 23.5958C103.585 23.5958 103.672 23.5575 103.765 23.5263C103.81 23.5115 103.88 23.4975 103.927 23.4958C104.003 23.4929 104.031 23.4336 104.106 23.4221C104.198 23.408 104.249 23.3645 104.321 23.3263C104.444 23.2613 104.527 23.1424 104.646 23.0762C104.743 23.0224 104.85 22.9279 104.935 22.858C105.012 22.7948 105.103 22.745 105.171 22.6843C105.225 22.6365 105.306 22.5911 105.345 22.5329C105.401 22.4497 105.506 22.4023 105.547 22.3203" stroke="#3FD2C7" stroke-linecap="round"/>
<path d="M103.17 15.0919C103.244 15.1673 103.375 15.342 103.483 15.342C103.551 15.342 103.486 15.1802 103.458 15.1434C103.415 15.0862 103.496 14.8367 103.496 14.7168" stroke="#3FD2C7" stroke-linecap="round"/>
<path d="M103.846 15.0918C103.913 15.1245 104.15 15.1549 104.19 15.2168C104.238 15.2912 104.347 15.3523 104.421 15.3975C104.606 15.5104 104.733 15.6526 104.871 15.8171C104.949 15.9098 104.962 16.0647 105.066 16.1422C105.109 16.1749 105.103 16.23 105.152 16.2673C105.199 16.3034 105.251 16.3921 105.291 16.4423C105.496 16.7024 105.701 16.9918 105.821 17.2927" stroke="#3FD2C7" stroke-linecap="round"/>
<path d="M104.696 15.541C104.916 15.5576 105.285 15.5524 105.397 15.8036C105.434 15.8872 105.555 15.926 105.591 16.0023C105.655 16.1364 105.688 16.2903 105.772 16.4164" stroke="#3FD2C7" stroke-linecap="round"/>
<path d="M106.072 16.5918C106.112 16.5968 106.097 16.6612 106.097 16.6918" stroke="#3FD2C7" stroke-linecap="round"/>
<path d="M106.347 17.0176C106.374 17.0423 106.415 17.0519 106.447 17.0676" stroke="#3FD2C7" stroke-linecap="round"/>
<path d="M106.247 17.4174C106.306 17.4174 106.401 17.3994 106.458 17.4202C106.511 17.4395 106.504 17.4924 106.572 17.4924" stroke="#3FD2C7" stroke-linecap="round"/>
<path d="M106.422 17.9434C106.46 17.9688 106.576 18.0907 106.622 18.0934C106.679 18.0968 106.674 18.0981 106.714 18.1309C106.803 18.2037 106.897 18.146 106.897 18.2935" stroke="#3FD2C7" stroke-linecap="round"/>
<path d="M106.872 18.4688C106.872 18.5532 106.947 18.5723 106.947 18.6438" stroke="#3FD2C7" stroke-linecap="round"/>
<path d="M106.897 18.8926C106.897 19.1029 106.947 19.2736 106.947 19.4803C106.947 19.6679 106.947 19.8555 106.947 20.043" stroke="#3FD2C7" stroke-linecap="round"/>
<path d="M100.494 14.7422C100.57 14.7422 100.58 14.7593 100.514 14.8075C100.364 14.9155 100.18 14.8774 100.022 14.9617C99.9047 15.0242 99.8197 15.0759 99.6856 15.1062C99.5985 15.1259 99.5341 15.1948 99.4438 15.2174" stroke="#3FD2C7" stroke-linecap="round"/>
<path d="M98.4685 16.3926C98.2786 16.5226 98.1165 16.6763 97.9169 16.7927C97.8573 16.8275 97.754 16.8587 97.7127 16.9178C97.708 16.9245 97.6716 16.9804 97.6696 16.9734C97.6381 16.863 97.6932 16.7423 97.6932 16.6329C97.6932 16.5759 97.6813 16.7514 97.6488 16.7983C97.6198 16.8401 97.5893 16.8914 97.5737 16.9428C97.5568 16.9988 97.4961 17.0074 97.4737 17.0623C97.4219 17.1893 97.3289 17.2964 97.2681 17.418" stroke="#3FD2C7" stroke-linecap="round"/>
<path d="M102.62 18.0684V18.2684" stroke="#3FD2C7" stroke-linecap="round"/>
<path d="M101.97 18.3672C101.955 18.4448 101.921 18.5182 101.895 18.5923" stroke="#3FD2C7" stroke-linecap="round"/>
<path d="M100.695 18.6934C100.644 18.8299 100.589 18.9456 100.52 19.0685" stroke="#3FD2C7" stroke-linecap="round"/>
<path d="M99.8192 19.0938C99.8044 19.1913 99.7803 19.2572 99.7441 19.3438" stroke="#3FD2C7" stroke-linecap="round"/>
<path d="M99.0438 19.3926C98.9638 19.5126 98.8537 19.5777 98.7437 19.6677" stroke="#3FD2C7" stroke-linecap="round"/>
<path d="M97.8934 19.6934C97.8294 19.7716 97.7618 19.8443 97.6934 19.9184" stroke="#3FD2C7" stroke-linecap="round"/>
<path d="M97.2136 20.0781C97.21 20.1582 97.1948 20.3978 97.1948 20.3177" stroke="#3FD2C7" stroke-linecap="round"/>
<path d="M97.3307 19.8906C97.3533 19.9665 97.3552 20.0355 97.3542 20.1135C97.3537 20.1462 97.3448 20.1759 97.3448 20.2091C97.3448 20.2225 97.3448 20.2359 97.3448 20.2492C97.3448 20.2722 97.3448 20.2033 97.3448 20.1803C97.3448 20.1495 97.3192 20.1516 97.2978 20.1339C97.2767 20.1164 97.2594 20.0839 97.2289 20.0832C97.1984 20.0826 97.1448 20.0785 97.1427 20.124C97.141 20.1619 97.1463 20.1968 97.1318 20.2331C97.1244 20.2515 97.1166 20.268 97.1088 20.2853C97.1004 20.3039 97.0905 20.3162 97.0853 20.3369C97.0818 20.3509 97.0723 20.371 97.0723 20.3839C97.0723 20.4253 97.0723 20.4668 97.0723 20.5082C97.0723 20.5501 97.0723 20.592 97.0723 20.634C97.0723 20.6487 97.0817 20.658 97.0817 20.6742C97.0817 20.7008 97.1169 20.6893 97.138 20.6893" stroke="#3FD2C7" stroke-linecap="round"/>
<path d="M97.1382 20.627C97.161 20.6947 97.1993 20.7704 97.1993 20.8431C97.1993 20.8996 97.2087 20.9469 97.2087 21.0028" stroke="#3FD2C7" stroke-linecap="round"/>
<path d="M97.3307 20.0829C97.3138 20.0321 97.3062 19.9729 97.3026 19.9195C97.3018 19.9081 97.303 19.9019 97.2958 19.8926C97.2773 19.8689 97.2538 19.9232 97.2498 19.9383C97.2334 20.0009 97.2142 20.0624 97.1963 20.1244C97.1895 20.1481 97.1762 20.2058 97.1486 20.2181C97.1267 20.2278 97.1006 20.2297 97.0768 20.2283C97.0268 20.2254 97.0054 20.1364 96.9909 20.098C96.9813 20.0726 96.9737 20.057 96.9737 20.0307C96.9737 19.9997 96.9755 19.9649 96.9666 19.9349C96.9626 19.9211 96.96 19.9092 96.9596 19.895C96.9587 19.8652 96.9502 19.9359 96.9502 19.9464C96.9502 19.9923 96.9621 20.0358 96.9805 20.0779C96.9871 20.0931 96.9829 20.1134 96.9867 20.1299C96.9911 20.1484 96.9946 20.1618 97.004 20.1792C97.0183 20.2058 97.0348 20.2404 97.0348 20.2708" stroke="#3FD2C7" stroke-linecap="round"/>
<path d="M97.0257 20.5576C97.0257 20.4938 97.035 20.4229 97.021 20.3603C97.0182 20.3473 97.0081 20.3112 96.9976 20.3086" stroke="#3FD2C7" stroke-linecap="round"/>
<path d="M102.461 23.8789C102.49 23.8789 102.518 23.8789 102.547 23.8789C102.571 23.8789 102.591 23.8711 102.615 23.8711C102.666 23.8711 102.715 23.8789 102.765 23.8789C102.796 23.8789 102.824 23.8867 102.855 23.8867C102.892 23.8867 102.928 23.8867 102.965 23.8867C103.003 23.8867 103.042 23.8867 103.08 23.8867C103.111 23.8867 103.158 23.877 103.18 23.8555" stroke="#3FD2C7" stroke-linecap="round"/>
<path d="M105.87 21.7019C105.901 21.7019 105.929 21.6768 105.953 21.6608C105.978 21.6441 106.005 21.6318 106.031 21.6178C106.041 21.6125 106.063 21.5766 106.063 21.6061C106.064 21.6403 106.064 21.6748 106.063 21.709C106.062 21.7494 106.043 21.7955 106.027 21.8329C106.012 21.8706 105.995 21.9086 105.983 21.9477C105.983 21.9483 105.971 21.9618 105.977 21.961C105.998 21.958 106.027 21.9211 106.042 21.9072C106.054 21.8961 106.075 21.8813 106.083 21.8661C106.086 21.8602 106.084 21.8569 106.088 21.8516C106.118 21.8185 106.129 21.7701 106.153 21.7354C106.159 21.728 106.158 21.7207 106.165 21.7136C106.174 21.7046 106.172 21.6931 106.179 21.6851C106.192 21.6691 106.202 21.6526 106.21 21.6346C106.216 21.6189 106.219 21.5994 106.228 21.5843C106.242 21.5597 106.245 21.528 106.261 21.5041C106.275 21.4836 106.276 21.4567 106.284 21.4335C106.292 21.4128 106.292 21.3809 106.307 21.3652" stroke="#3FD2C7" stroke-linecap="round"/>
<path d="M106.274 21.6093C106.309 21.5695 106.333 21.5256 106.363 21.483C106.378 21.4624 106.383 21.4329 106.399 21.4138C106.408 21.4022 106.417 21.3867 106.421 21.3713C106.426 21.3497 106.439 21.3358 106.446 21.3156C106.451 21.2978 106.467 21.2834 106.474 21.2651C106.481 21.2474 106.49 21.2277 106.499 21.2113C106.511 21.1905 106.519 21.1686 106.527 21.1459C106.531 21.1343 106.54 21.1263 106.543 21.1145C106.546 21.102 106.547 21.0916 106.555 21.0808C106.607 21.0086 106.639 20.9227 106.686 20.8475C106.717 20.7987 106.732 20.7423 106.76 20.692C106.768 20.6772 106.772 20.6516 106.775 20.6347C106.778 20.6132 106.791 20.5974 106.796 20.5781" stroke="#3FD2C7" stroke-linecap="round"/>
<path d="M105.386 22.6281C105.442 22.6132 105.494 22.596 105.548 22.5757C105.566 22.5689 105.582 22.563 105.596 22.5505C105.616 22.5341 105.644 22.5283 105.663 22.5093C105.688 22.4843 105.708 22.4484 105.729 22.4176C105.735 22.4088 105.741 22.3992 105.75 22.3924C105.756 22.3874 105.755 22.3752 105.761 22.3688C105.77 22.3582 105.779 22.3413 105.785 22.3283C105.789 22.3184 105.797 22.3129 105.801 22.304C105.812 22.2827 105.82 22.2591 105.83 22.2369C105.839 22.2175 105.839 22.1966 105.849 22.1777" stroke="#3FD2C7" stroke-linecap="round"/>
<path d="M105.857 22.1393C105.893 22.0808 105.941 22.0204 105.965 21.955C105.969 21.9455 105.971 21.9343 105.976 21.9256C105.987 21.9058 105.997 21.8822 106.013 21.8657C106.018 21.8599 106.053 21.8239 106.06 21.8367C106.075 21.8635 106.06 21.9016 106.076 21.9246" stroke="#3FD2C7" stroke-linecap="round"/>
<path d="M106.021 22.0293C106.031 22.0485 106.038 22.0671 106.038 22.0882" stroke="#3FD2C7" stroke-linecap="round"/>
<path d="M105.971 22.1094C105.971 22.1391 105.98 22.1687 105.971 22.1978" stroke="#3FD2C7" stroke-linecap="round"/>
<path d="M105.723 22.2402C105.74 22.251 105.765 22.2845 105.769 22.3052C105.776 22.3406 105.809 22.337 105.836 22.337" stroke="#3FD2C7" stroke-linecap="round"/>
<path d="M105.899 22.202C105.904 22.202 105.916 22.1997 105.92 22.2029C105.923 22.2054 105.92 22.2108 105.925 22.2136C105.929 22.2162 105.937 22.2304 105.937 22.2356C105.938 22.2413 105.934 22.2299 105.933 22.2281C105.928 22.2213 105.929 22.2376 105.928 22.2398C105.92 22.254 105.908 22.2305 105.908 22.223" stroke="#3FD2C7" stroke-linecap="round"/>
<path d="M105.748 21.3262C105.78 21.3645 105.817 21.3999 105.843 21.4418C105.846 21.4464 105.849 21.4518 105.85 21.4572C105.851 21.468 105.863 21.4708 105.87 21.4782C105.884 21.4939 105.933 21.4847 105.951 21.4847C106.001 21.4847 106.044 21.5702 106.073 21.6027C106.082 21.6122 106.081 21.6205 106.092 21.6295C106.108 21.6425 106.118 21.6525 106.129 21.6679C106.142 21.6866 106.16 21.7082 106.176 21.7237C106.195 21.7433 106.22 21.7627 106.22 21.7917C106.22 21.8159 106.24 21.8334 106.24 21.8548" stroke="#3FD2C7" stroke-linecap="round"/>
<path d="M105.911 21.8105C105.934 21.821 105.946 21.8393 105.959 21.8602C105.966 21.8708 105.976 21.8809 105.98 21.8937C105.985 21.9142 106.007 21.9366 106.029 21.9366C106.044 21.9366 106.048 21.9405 106.06 21.9497C106.065 21.9536 106.08 21.9645 106.085 21.9653C106.094 21.9665 106.095 21.9787 106.104 21.9834C106.11 21.9868 106.123 21.9962 106.126 22.0017" stroke="#3FD2C7" stroke-linecap="round"/>
<path d="M105.854 21.8633C105.893 21.8972 105.94 21.9294 105.965 21.9767C105.974 21.9943 105.983 22.0126 105.993 22.03C105.997 22.038 106.016 22.0465 106.024 22.0512C106.032 22.0556 106.069 22.1059 106.069 22.091" stroke="#3FD2C7" stroke-linecap="round"/>
<path d="M106.374 21.4648C106.389 21.4777 106.4 21.4918 106.409 21.5098C106.413 21.5201 106.415 21.5363 106.421 21.5453C106.426 21.5539 106.431 21.5532 106.431 21.5645C106.431 21.5709 106.432 21.5735 106.435 21.5787" stroke="#3FD2C7" stroke-linecap="round"/>
<path d="M106.208 21.5664C106.227 21.6025 106.246 21.6681 106.291 21.6843C106.313 21.6923 106.326 21.6998 106.346 21.7128" stroke="#3FD2C7" stroke-linecap="round"/>
<path d="M106.484 21.1875C106.519 21.2062 106.548 21.2372 106.576 21.2648C106.583 21.2726 106.592 21.2779 106.598 21.2892" stroke="#3FD2C7" stroke-linecap="round"/>
<path d="M106.309 21.3145C106.338 21.3194 106.387 21.3392 106.394 21.3734C106.396 21.3834 106.426 21.4116 106.436 21.412C106.466 21.4132 106.509 21.3806 106.533 21.412" stroke="#3FD2C7" stroke-linecap="round"/>
<path d="M106.646 20.9023C106.677 20.9192 106.714 20.9338 106.739 20.9584C106.743 20.9626 106.746 20.9633 106.752 20.9633" stroke="#3FD2C7" stroke-linecap="round"/>
<path d="M106.459 21.0215C106.506 21.0576 106.546 21.0951 106.593 21.1272C106.6 21.1322 106.598 21.139 106.609 21.1394C106.616 21.1397 106.623 21.1394 106.63 21.1394C106.647 21.1394 106.651 21.1238 106.667 21.1394" stroke="#3FD2C7" stroke-linecap="round"/>
<path d="M106.578 20.2109C106.606 20.228 106.646 20.2514 106.667 20.278C106.682 20.2971 106.717 20.3108 106.724 20.3352C106.726 20.3432 106.731 20.347 106.734 20.3551C106.737 20.3616 106.743 20.361 106.747 20.3664C106.75 20.372 106.749 20.3795 106.752 20.3856C106.761 20.3994 106.778 20.4217 106.781 20.4366C106.783 20.445 106.793 20.4586 106.799 20.4621C106.806 20.4663 106.828 20.4832 106.83 20.4915C106.834 20.5155 106.855 20.5315 106.861 20.5525C106.866 20.5671 106.874 20.581 106.883 20.5931" stroke="#3FD2C7" stroke-linecap="round"/>
<path d="M106.765 20.707C106.79 20.7193 106.82 20.7347 106.834 20.7558" stroke="#3FD2C7" stroke-linecap="round"/>
<path d="M106.927 20.248C106.944 20.2534 106.959 20.265 106.976 20.2684" stroke="#3FD2C7" stroke-linecap="round"/>
<path d="M106.663 20.3613C106.711 20.3922 106.746 20.4061 106.801 20.4061C106.814 20.4061 106.827 20.4061 106.84 20.4061C106.854 20.4061 106.857 20.4027 106.866 20.3979" stroke="#3FD2C7" stroke-linecap="round"/>
<path d="M106.866 20.3496C106.897 20.3395 106.897 20.3708 106.908 20.3903C106.912 20.3972 106.919 20.3992 106.922 20.4066C106.926 20.4135 106.927 20.4206 106.931 20.4269" stroke="#3FD2C7" stroke-linecap="round"/>
<path d="M106.887 18.9883C106.942 19.0109 106.996 19.0354 107.053 19.0513C107.072 19.0564 107.074 19.0566 107.09 19.0696" stroke="#3FD2C7" stroke-linecap="round"/>
<path d="M106.826 19.3613C106.846 19.379 106.88 19.382 106.905 19.3893C106.917 19.3931 106.928 19.4027 106.939 19.4056C106.949 19.408 106.959 19.4081 106.969 19.411C106.984 19.4158 107.001 19.4142 107.017 19.4142C107.045 19.4142 107.064 19.4302 107.078 19.4508" stroke="#3FD2C7" stroke-linecap="round"/>
<path d="M106.959 19.2154C107.009 19.2133 107.065 19.1923 107.094 19.2398" stroke="#3FD2C7" stroke-linecap="round"/>
<path d="M106.988 19.6719C107.013 19.6793 107.053 19.6867 107.066 19.7125" stroke="#3FD2C7" stroke-linecap="round"/>
<path d="M106.895 19.9884C106.914 19.9885 106.956 19.9816 106.975 19.9924C106.977 19.9939 106.976 19.9963 106.98 19.9965C106.985 19.9968 106.991 19.9953 106.996 19.9974C107.006 20.0018 107.014 20.0128 107.025 20.0128" stroke="#3FD2C7" stroke-linecap="round"/>
<path d="M106.964 19.7812C106.992 19.7851 107.014 19.8044 107.039 19.8099C107.043 19.8109 107.052 19.8219 107.053 19.826" stroke="#3FD2C7" stroke-linecap="round"/>
<path d="M107.008 19.5977C107.031 19.6049 107.055 19.6095 107.073 19.6221" stroke="#3FD2C7" stroke-linecap="round"/>
<path d="M106.744 17.8457C106.78 17.8484 106.826 17.8593 106.86 17.8495C106.866 17.8477 106.87 17.8457 106.878 17.8457" stroke="#3FD2C7" stroke-linecap="round"/>
<path d="M106.813 18.0977C106.857 18.0977 106.902 18.1017 106.944 18.1017" stroke="#3FD2C7" stroke-linecap="round"/>
<path d="M106.935 18.4428C106.946 18.4428 106.969 18.4372 106.976 18.4486C106.979 18.4536 106.983 18.4573 106.988 18.459" stroke="#3FD2C7" stroke-linecap="round"/>
<path d="M107.008 18.4922C107.019 18.4979 107.033 18.4963 107.045 18.4963" stroke="#3FD2C7" stroke-linecap="round"/>
<path d="M106.98 18.3009C106.986 18.3002 106.989 18.2969 106.996 18.2969" stroke="#3FD2C7" stroke-linecap="round"/>
<path d="M107.021 18.8816C107.054 18.8808 107.069 18.8651 107.069 18.8328C107.069 18.8222 107.071 18.8107 107.069 18.8003C107.067 18.7876 107.057 18.777 107.057 18.7637" stroke="#3FD2C7" stroke-linecap="round"/>
<path d="M107.008 18.674C107.026 18.674 107.041 18.6727 107.057 18.678" stroke="#3FD2C7" stroke-linecap="round"/>
<path d="M106.895 18.0737C106.925 18.0737 106.939 18.0708 106.939 18.0371" stroke="#3FD2C7" stroke-linecap="round"/>
<path d="M106.956 18.1997C106.967 18.1997 106.975 18.1976 106.98 18.1875" stroke="#3FD2C7" stroke-linecap="round"/>
<path d="M106.398 17.0963C106.468 17.0963 106.488 17.0455 106.488 16.9824" stroke="#3FD2C7" stroke-linecap="round"/>
<path d="M106.476 17.2756C106.498 17.2723 106.519 17.264 106.539 17.2596C106.546 17.2581 106.549 17.2536 106.555 17.2512C106.566 17.2473 106.588 17.2439 106.593 17.2332C106.602 17.2115 106.595 17.189 106.585 17.1699" stroke="#3FD2C7" stroke-linecap="round"/>
<path d="M106.622 17.536C106.655 17.536 106.659 17.5304 106.679 17.5075C106.688 17.4977 106.683 17.4734 106.683 17.4606C106.683 17.4444 106.683 17.4282 106.683 17.412C106.683 17.3906 106.669 17.3829 106.663 17.3652" stroke="#3FD2C7" stroke-linecap="round"/>
<path d="M106.708 17.6016H106.793" stroke="#3FD2C7" stroke-linecap="round"/>
<path d="M106.606 17.3947C106.63 17.3732 106.654 17.3587 106.679 17.3418" stroke="#3FD2C7" stroke-linecap="round"/>
<path d="M106.716 17.4953C106.73 17.4953 106.738 17.495 106.744 17.481C106.748 17.4725 106.732 17.4749 106.728 17.4749" stroke="#3FD2C7" stroke-linecap="round"/>
<path d="M104.106 15.5231C104.113 15.4966 104.124 15.4713 104.126 15.4437C104.126 15.4312 104.131 15.4194 104.131 15.4065C104.131 15.3949 104.141 15.3877 104.141 15.3765C104.141 15.3529 104.137 15.3258 104.141 15.3026C104.143 15.2937 104.151 15.2818 104.156 15.2739C104.162 15.2637 104.176 15.2484 104.179 15.2381C104.185 15.2191 104.209 15.2134 104.219 15.1956C104.224 15.1875 104.234 15.1901 104.24 15.1832C104.251 15.1698 104.276 15.1531 104.291 15.146C104.304 15.1404 104.313 15.0971 104.317 15.0837C104.325 15.0536 104.329 15.0234 104.329 14.9922" stroke="#3FD2C7" stroke-linecap="round"/>
<path d="M104.552 15.5776C104.571 15.5523 104.602 15.5243 104.602 15.4904C104.602 15.4774 104.602 15.4643 104.602 15.4513C104.602 15.4298 104.595 15.3968 104.604 15.3769C104.615 15.3529 104.611 15.3258 104.624 15.3022C104.629 15.2929 104.631 15.2707 104.632 15.2597C104.635 15.2336 104.642 15.2155 104.642 15.188C104.642 15.1734 104.642 15.1707 104.627 15.1707C104.616 15.1707 104.597 15.1659 104.597 15.1806" stroke="#3FD2C7" stroke-linecap="round"/>
<path d="M104.319 15.1468C104.341 15.1023 104.36 15.0624 104.385 15.0228C104.399 15.0009 104.405 15.0351 104.399 15.0476" stroke="#3FD2C7" stroke-linecap="round"/>
<path d="M104.938 15.3753C104.938 15.3681 104.949 15.3364 104.934 15.3518" stroke="#3FD2C7" stroke-linecap="round"/>
<path d="M104.691 15.2695C104.691 15.2465 104.707 15.225 104.707 15.2031" stroke="#3FD2C7" stroke-linecap="round"/>
<path d="M104.696 15.4332C104.69 15.4257 104.707 15.4086 104.707 15.3981C104.707 15.3876 104.713 15.3731 104.721 15.3666C104.73 15.3588 104.723 15.3473 104.74 15.3473C104.755 15.3473 104.762 15.337 104.774 15.3356C104.78 15.3348 104.781 15.3209 104.789 15.3199C104.805 15.318 104.795 15.2935 104.803 15.2887C104.81 15.2848 104.807 15.2814 104.809 15.2752C104.81 15.2728 104.816 15.2709 104.819 15.2672C104.829 15.2486 104.822 15.2704 104.817 15.2731" stroke="#3FD2C7" stroke-linecap="round"/>
<path d="M105.059 15.7625C105.059 15.7462 105.059 15.7361 105.066 15.7234C105.072 15.7113 105.066 15.6955 105.074 15.6844C105.089 15.6637 105.084 15.6272 105.091 15.6023C105.094 15.5878 105.096 15.5729 105.109 15.565C105.118 15.5591 105.132 15.566 105.142 15.5631C105.161 15.5577 105.137 15.5097 105.137 15.5242" stroke="#3FD2C7" stroke-linecap="round"/>
<path d="M105.156 15.5477C105.17 15.5462 105.178 15.4971 105.16 15.5321" stroke="#3FD2C7" stroke-linecap="round"/>
<path d="M104.98 15.5039C104.98 15.4727 105.004 15.4287 105.031 15.418" stroke="#3FD2C7" stroke-linecap="round"/>
<path d="M105.254 15.7969C105.267 15.7916 105.294 15.7864 105.301 15.7715C105.303 15.7669 105.307 15.7616 105.31 15.7578C105.314 15.754 105.315 15.7441 105.319 15.7422C105.323 15.7399 105.33 15.7327 105.332 15.7285C105.336 15.7197 105.345 15.7141 105.35 15.7051C105.353 15.6999 105.362 15.7002 105.363 15.6953C105.364 15.6901 105.363 15.6836 105.367 15.6836" stroke="#3FD2C7" stroke-linecap="round"/>
<path d="M105.496 15.9453C105.52 15.9583 105.547 15.9245 105.547 15.9023C105.547 15.8841 105.547 15.8659 105.547 15.8477" stroke="#3FD2C7" stroke-linecap="round"/>
<path d="M105.629 16.1094C105.643 16.1023 105.707 16.0823 105.707 16.0603C105.707 16.0507 105.707 16.0411 105.707 16.0315C105.707 16.0208 105.71 16.0033 105.703 15.9961" stroke="#3FD2C7" stroke-linecap="round"/>
<path d="M105.832 16.1953C105.855 16.1953 105.855 16.1895 105.859 16.168" stroke="#3FD2C7" stroke-linecap="round"/>
<path d="M105.973 16.3633C105.978 16.3617 106 16.3588 106.003 16.3537C106.007 16.3479 106.01 16.3441 106.016 16.3398" stroke="#3FD2C7" stroke-linecap="round"/>
<path d="M106.082 16.5625C106.112 16.555 106.143 16.5483 106.173 16.5428C106.177 16.5421 106.176 16.5378 106.176 16.5352" stroke="#3FD2C7" stroke-linecap="round"/>
<path d="M106.297 16.7227H106.316" stroke="#3FD2C7" stroke-linecap="round"/>
<path d="M106.293 16.8711C106.302 16.8711 106.307 16.8748 106.315 16.8789C106.328 16.8863 106.345 16.8828 106.359 16.8828" stroke="#3FD2C7" stroke-linecap="round"/>
<path d="M106.375 16.9844C106.392 16.9727 106.417 16.9633 106.418 16.9414C106.419 16.9247 106.423 16.9083 106.438 16.8984" stroke="#3FD2C7" stroke-linecap="round"/>
<path d="M105.832 16.3047C105.851 16.2954 105.866 16.2919 105.874 16.2734C105.881 16.2574 105.873 16.2578 105.896 16.2578C105.917 16.2578 105.928 16.257 105.938 16.2383" stroke="#3FD2C7" stroke-linecap="round"/>
<path d="M106.047 16.5039C106.056 16.5039 106.079 16.5085 106.088 16.5017C106.095 16.4959 106.093 16.4866 106.098 16.4787C106.105 16.4661 106.113 16.4617 106.113 16.4453" stroke="#3FD2C7" stroke-linecap="round"/>
<path d="M104.414 15.3203C104.425 15.3027 104.456 15.283 104.457 15.2609C104.457 15.2485 104.455 15.2368 104.463 15.2266C104.471 15.2169 104.467 15.2011 104.477 15.1936C104.485 15.1876 104.498 15.1785 104.504 15.1704C104.507 15.1651 104.521 15.1681 104.527 15.166C104.538 15.1624 104.546 15.155 104.556 15.1504C104.565 15.1464 104.578 15.1295 104.582 15.1211" stroke="#3FD2C7" stroke-linecap="round"/>
<path d="M103.672 15.0898C103.677 15.0408 103.729 14.9927 103.756 14.9529C103.773 14.9279 103.776 14.8991 103.781 14.8694C103.784 14.8508 103.784 14.8307 103.796 14.8155C103.799 14.8112 103.797 14.7965 103.797 14.791C103.797 14.7795 103.802 14.7705 103.809 14.7617" stroke="#3FD2C7" stroke-linecap="round"/>
<path d="M104.016 15.0273C104.036 15.0187 104.047 14.9974 104.057 14.9787C104.061 14.971 104.064 14.9546 104.068 14.949C104.078 14.9373 104.082 14.9123 104.082 14.8976C104.082 14.89 104.079 14.8746 104.086 14.8711" stroke="#3FD2C7" stroke-linecap="round"/>
<path d="M104.223 15.1639C104.255 15.1274 104.246 15.0726 104.246 15.0271C104.246 15.01 104.254 14.9948 104.254 14.9764C104.254 14.9701 104.25 14.9337 104.25 14.9568" stroke="#3FD2C7" stroke-linecap="round"/>
<path d="M103.855 14.9375C103.883 14.9083 103.92 14.8805 103.939 14.8457C103.945 14.8364 103.941 14.8188 103.941 14.8086" stroke="#3FD2C7" stroke-linecap="round"/>
<path d="M102.867 14.8438C102.865 14.8112 102.867 14.7743 102.855 14.7431C102.85 14.7287 102.842 14.7152 102.836 14.701C102.828 14.6814 102.811 14.6664 102.804 14.6476C102.798 14.6333 102.793 14.6181 102.793 14.6033C102.793 14.5728 102.793 14.5422 102.793 14.5117" stroke="#3FD2C7" stroke-linecap="round"/>
<path d="M103.047 14.8312C103.065 14.7713 103.069 14.7096 103.096 14.6532C103.104 14.6367 103.093 14.6153 103.104 14.5986C103.108 14.5924 103.113 14.5808 103.113 14.5734C103.114 14.5691 103.113 14.5523 103.113 14.5656" stroke="#3FD2C7" stroke-linecap="round"/>
<path d="M102.809 14.6992C102.835 14.6669 102.859 14.6336 102.885 14.6011C102.894 14.5902 102.892 14.5786 102.9 14.5684C102.909 14.5566 102.909 14.5401 102.918 14.5273" stroke="#3FD2C7" stroke-linecap="round"/>
<path d="M103.309 14.7344C103.293 14.7167 103.323 14.6905 103.324 14.6719C103.325 14.655 103.332 14.6363 103.332 14.6172" stroke="#3FD2C7" stroke-linecap="round"/>
<path d="M103.512 14.7773C103.517 14.7662 103.518 14.7537 103.525 14.7441C103.531 14.7367 103.539 14.7311 103.544 14.7227C103.551 14.7085 103.574 14.6995 103.574 14.6836" stroke="#3FD2C7" stroke-linecap="round"/>
<path d="M103.637 14.8398C103.637 14.8111 103.656 14.7938 103.656 14.7656C103.656 14.745 103.665 14.7273 103.676 14.7109" stroke="#3FD2C7" stroke-linecap="round"/>
<path d="M103.461 14.7109C103.482 14.6863 103.488 14.6818 103.488 14.6523" stroke="#3FD2C7" stroke-linecap="round"/>
<path d="M103.012 14.6524C103.012 14.6398 103.015 14.6302 103.023 14.6203C103.028 14.6126 103.026 14.5986 103.033 14.5897C103.039 14.5827 103.036 14.564 103.041 14.5547C103.048 14.5411 103.051 14.541 103.051 14.5587" stroke="#3FD2C7" stroke-linecap="round"/>
<path d="M103.176 14.6445C103.167 14.6435 103.168 14.5841 103.168 14.5742" stroke="#3FD2C7" stroke-linecap="round"/>
<path d="M101.734 14.8281C101.757 14.8099 101.746 14.7572 101.746 14.7305C101.746 14.7096 101.746 14.6888 101.746 14.668C101.746 14.6523 101.746 14.6367 101.746 14.6211C101.746 14.6119 101.743 14.6046 101.742 14.5957C101.742 14.5874 101.736 14.5851 101.734 14.5781C101.732 14.5661 101.723 14.552 101.718 14.5399C101.714 14.5304 101.716 14.521 101.712 14.5117C101.708 14.5032 101.7 14.4959 101.699 14.4883C101.699 14.4792 101.697 14.4648 101.688 14.4648" stroke="#3FD2C7" stroke-linecap="round"/>
<path d="M102.043 14.6328C102.043 14.5906 102.042 14.5666 102.018 14.5317C102.014 14.5251 102.013 14.5226 102.011 14.5156C102.009 14.5089 102.002 14.5085 102 14.5017C101.996 14.4917 101.983 14.4847 101.974 14.4781C101.966 14.4713 101.966 14.4628 101.957 14.457" stroke="#3FD2C7" stroke-linecap="round"/>
<path d="M101.777 14.5117C101.791 14.5058 101.793 14.4708 101.793 14.457" stroke="#3FD2C7" stroke-linecap="round"/>
<path d="M102.387 14.6523C102.386 14.6216 102.389 14.5933 102.363 14.5734C102.36 14.5707 102.344 14.5428 102.344 14.5382C102.343 14.5263 102.351 14.4742 102.34 14.4688" stroke="#3FD2C7" stroke-linecap="round"/>
<path d="M102.141 14.5508C102.155 14.557 102.144 14.5059 102.141 14.5C102.134 14.4846 102.129 14.4665 102.129 14.4492" stroke="#3FD2C7" stroke-linecap="round"/>
<path d="M102.566 14.5781C102.561 14.5649 102.566 14.5498 102.561 14.5373C102.558 14.531 102.552 14.5221 102.551 14.5156C102.549 14.5038 102.547 14.4889 102.543 14.4766" stroke="#3FD2C7" stroke-linecap="round"/>
<path d="M102.371 14.5547C102.377 14.5429 102.406 14.4727 102.371 14.4727" stroke="#3FD2C7" stroke-linecap="round"/>
<path d="M102.605 14.511C102.612 14.5026 102.625 14.465 102.625 14.4876" stroke="#3FD2C7" stroke-linecap="round"/>
<path d="M101.207 14.8164C101.166 14.7713 101.108 14.7242 101.084 14.6645C101.078 14.6475 101.069 14.6315 101.059 14.6157C101.05 14.6001 101.044 14.5789 101.033 14.5664C101.022 14.553 101.028 14.5327 101.02 14.5195" stroke="#3FD2C7" stroke-linecap="round"/>
<path d="M101.34 14.6562C101.34 14.6162 101.338 14.5779 101.336 14.5391C101.335 14.5287 101.328 14.5204 101.328 14.5078C101.328 14.4942 101.326 14.491 101.32 14.4805" stroke="#3FD2C7" stroke-linecap="round"/>
<path d="M101.535 14.5273C101.533 14.5067 101.521 14.4832 101.512 14.4648" stroke="#3FD2C7" stroke-linecap="round"/>
<path d="M101.16 14.5039V14.5352" stroke="#3FD2C7" stroke-linecap="round"/>
<path d="M100.727 14.707C100.714 14.6712 100.695 14.6327 100.695 14.594C100.695 14.5859 100.695 14.5803 100.691 14.5742" stroke="#3FD2C7" stroke-linecap="round"/>
<path d="M100.336 14.7773C100.322 14.7568 100.303 14.7424 100.289 14.7235C100.283 14.7154 100.278 14.7036 100.27 14.6992" stroke="#3FD2C7" stroke-linecap="round"/>
<path d="M100.488 14.6367V14.6875" stroke="#3FD2C7" stroke-linecap="round"/>
<path d="M100.898 14.6094C100.903 14.5959 100.912 14.543 100.891 14.543" stroke="#3FD2C7" stroke-linecap="round"/>
<path d="M100.379 14.7266C100.386 14.7228 100.383 14.6961 100.383 14.6875C100.383 14.6749 100.375 14.6711 100.375 14.6602" stroke="#3FD2C7" stroke-linecap="round"/>
<path d="M99.6523 15.0352C99.6523 15.0389 99.6541 15.0641 99.6554 15.0608C99.6619 15.0445 99.6562 15.0165 99.6562 14.9987C99.6562 14.9914 99.6585 14.9793 99.6554 14.9727C99.6515 14.9645 99.6445 14.9632 99.6445 14.9531" stroke="#3FD2C7" stroke-linecap="round"/>
<path d="M100.035 14.957C100.025 14.9195 100.015 14.8917 100 14.8579C99.9974 14.8521 99.9899 14.8443 99.9863 14.8379C99.9826 14.8312 99.9766 14.8159 99.9766 14.8086" stroke="#3FD2C7" stroke-linecap="round"/>
<path d="M100.105 14.8242C100.105 14.7995 100.108 14.7779 100.098 14.7578" stroke="#3FD2C7" stroke-linecap="round"/>
<path d="M99.9062 15.0156C99.9201 14.9966 99.9023 14.9829 99.9023 14.9668C99.9023 14.9523 99.8881 14.9411 99.8798 14.9327C99.8686 14.9215 99.8664 14.9155 99.8631 14.9004C99.8614 14.8927 99.8484 14.8888 99.8429 14.885C99.8352 14.8797 99.8309 14.8678 99.8281 14.8594" stroke="#3FD2C7" stroke-linecap="round"/>
<path d="M99.3047 15.2852C99.3082 15.2476 99.3095 15.2112 99.3045 15.1758C99.3025 15.1619 99.2896 15.1502 99.2852 15.1367" stroke="#3FD2C7" stroke-linecap="round"/>
<path d="M99.582 15.1055C99.582 15.0786 99.5385 15.0888 99.5219 15.076C99.5029 15.0612 99.4883 15.0557 99.4883 15.0273" stroke="#3FD2C7" stroke-linecap="round"/>
<path d="M98.7969 15.918C98.795 15.9106 98.7793 15.8968 98.7734 15.8906C98.7671 15.8839 98.7607 15.8704 98.7517 15.8672C98.7435 15.8642 98.7336 15.8579 98.7283 15.8507C98.7186 15.8374 98.7026 15.8324 98.6905 15.8212C98.6727 15.8046 98.657 15.798 98.6428 15.7756C98.6169 15.7348 98.5916 15.6901 98.5664 15.6523" stroke="#3FD2C7" stroke-linecap="round"/>
<path d="M98.8672 15.6328C98.8672 15.6026 98.8684 15.5845 98.8555 15.5586C98.8499 15.5475 98.8466 15.5348 98.8416 15.5232C98.8364 15.5113 98.8355 15.5031 98.8264 15.4939C98.8197 15.4873 98.8075 15.4734 98.8047 15.4648" stroke="#3FD2C7" stroke-linecap="round"/>
<path d="M98.6953 15.6836C98.6901 15.681 98.6807 15.6556 98.6788 15.6484C98.676 15.6377 98.6662 15.6339 98.6643 15.6233C98.6607 15.6036 98.637 15.6022 98.6289 15.5859" stroke="#3FD2C7" stroke-linecap="round"/>
<path d="M98.8242 15.5703C98.841 15.5494 98.8141 15.519 98.8047 15.5017C98.7997 15.4926 98.7848 15.4823 98.7754 15.4803C98.7678 15.4786 98.7578 15.4726 98.7578 15.4727" stroke="#3FD2C7" stroke-linecap="round"/>
<path d="M99.0195 15.4375C99.0405 15.4119 99.0186 15.3773 99.0156 15.3516C99.0146 15.3431 99.0021 15.3184 98.9961 15.3164" stroke="#3FD2C7" stroke-linecap="round"/>
<path d="M99.1445 15.2539C99.1445 15.2429 99.1435 15.2319 99.1328 15.2266" stroke="#3FD2C7" stroke-linecap="round"/>
<path d="M98.9648 15.5039C98.9648 15.5147 98.9418 15.4833 98.9358 15.4768C98.9262 15.4663 98.9259 15.4537 98.9197 15.4414C98.9115 15.425 98.8984 15.4005 98.8984 15.3828" stroke="#3FD2C7" stroke-linecap="round"/>
<path d="M98.4688 16.1289C98.4688 16.098 98.4301 16.1024 98.4119 16.0842C98.3934 16.0657 98.3357 16.0583 98.332 16.0265C98.3297 16.0062 98.3032 15.9902 98.2928 15.9746C98.2818 15.9582 98.2624 15.9389 98.2539 15.9219" stroke="#3FD2C7" stroke-linecap="round"/>
<path d="M98.5859 15.9414C98.5619 15.9179 98.5316 15.9054 98.5078 15.8828C98.4961 15.8717 98.4769 15.8696 98.4668 15.8572C98.4444 15.8298 98.4482 15.7858 98.418 15.7656" stroke="#3FD2C7" stroke-linecap="round"/>
<path d="M98.0664 16.3711C98.0632 16.3417 98.0385 16.3243 98.0213 16.303C98.014 16.2939 98.0141 16.2831 98.0039 16.2734C97.997 16.2669 97.981 16.2551 97.9774 16.247C97.9742 16.2397 97.9671 16.2257 97.9609 16.2227" stroke="#3FD2C7" stroke-linecap="round"/>
<path d="M98.0977 16.1133C98.0977 16.0976 98.0864 16.0991 98.082 16.0859" stroke="#3FD2C7" stroke-linecap="round"/>
<path d="M98.1092 16.7422C98.0898 16.7266 98.0549 16.6989 98.0294 16.6944C98.0023 16.6898 97.9867 16.6744 97.9617 16.6649C97.9159 16.6476 97.9212 16.6055 97.9042 16.5681C97.8976 16.5537 97.8975 16.5366 97.8942 16.5215C97.8888 16.4974 97.8636 16.4634 97.8475 16.4455C97.8365 16.4333 97.8237 16.4335 97.8102 16.4258C97.8061 16.4235 97.7879 16.4102 97.7928 16.4102" stroke="#3FD2C7" stroke-linecap="round"/>
<path d="M97.7031 16.7969C97.6998 16.7789 97.6793 16.7708 97.6719 16.7552C97.6643 16.7394 97.6539 16.726 97.643 16.7127C97.6362 16.7043 97.6396 16.6877 97.6328 16.6775C97.6274 16.6695 97.625 16.6508 97.625 16.6406" stroke="#3FD2C7" stroke-linecap="round"/>
<path d="M97.6406 16.8281C97.6386 16.8361 97.576 16.8359 97.5642 16.8316C97.5461 16.825 97.523 16.8255 97.5117 16.8086" stroke="#3FD2C7" stroke-linecap="round"/>
<path d="M97.5352 16.9451C97.5336 16.9204 97.4724 16.9429 97.457 16.9451" stroke="#3FD2C7" stroke-linecap="round"/>
<path d="M97.4258 17.043C97.4115 17.043 97.3873 17.0473 97.375 17.0391" stroke="#3FD2C7" stroke-linecap="round"/>
<path d="M97.5156 16.969C97.5156 16.9448 97.4895 16.9331 97.4674 16.9302C97.4463 16.9274 97.4346 16.9373 97.418 16.9456" stroke="#3FD2C7" stroke-linecap="round"/>
<path d="M97.4805 17.3359C97.4731 17.3359 97.4701 17.3324 97.464 17.3281C97.4528 17.3201 97.4413 17.3236 97.4298 17.3186C97.4134 17.3115 97.3956 17.3154 97.3798 17.3064C97.3713 17.3015 97.3638 17.3032 97.3547 17.2969C97.3443 17.2897 97.3398 17.2825 97.3321 17.2734C97.3232 17.263 97.3228 17.2516 97.3134 17.2413C97.3086 17.236 97.3126 17.2141 97.3126 17.207C97.3126 17.1873 97.3103 17.167 97.3165 17.1484" stroke="#3FD2C7" stroke-linecap="round"/>
<path d="M97.2656 17.3945C97.229 17.3945 97.2305 17.3647 97.2305 17.3359" stroke="#3FD2C7" stroke-linecap="round"/>
<path d="M97.2968 17.2578C97.2895 17.2578 97.2432 17.2578 97.2616 17.2578" stroke="#3FD2C7" stroke-linecap="round"/>
<path d="M97.2383 17.3516C97.2383 17.3351 97.2414 17.3149 97.2344 17.3008" stroke="#3FD2C7" stroke-linecap="round"/>
<path d="M97.1953 17.5625C97.1893 17.5618 97.1888 17.5558 97.1834 17.5549C97.1773 17.5539 97.1716 17.5558 97.166 17.5527C97.154 17.5461 97.1459 17.5404 97.1328 17.5352" stroke="#3FD2C7" stroke-linecap="round"/>
<path d="M97.2578 17.4572C97.2512 17.4572 97.2366 17.4602 97.2346 17.4514C97.2326 17.4426 97.2253 17.4458 97.2196 17.4407C97.2047 17.4273 97.1925 17.4299 97.1719 17.4299" stroke="#3FD2C7" stroke-linecap="round"/>
<path d="M97.2148 17.7578C97.201 17.7748 97.1675 17.7945 97.1463 17.8006C97.1336 17.8042 97.1187 17.8014 97.1055 17.8047" stroke="#3FD2C7" stroke-linecap="round"/>
<path d="M97.2188 17.8242C97.1759 17.8377 97.1229 17.8537 97.0898 17.8867" stroke="#3FD2C7" stroke-linecap="round"/>
<path d="M97.2461 17.957C97.2269 17.958 97.2046 17.9721 97.1862 17.9787C97.1717 17.984 97.1568 17.9877 97.1415 17.9883C97.1189 17.9892 97.0952 17.9922 97.0716 17.9922C97.0582 17.9922 97.0246 18.0042 97.0197 17.9824C97.0159 17.9651 96.9945 17.9695 96.9883 17.957" stroke="#3FD2C7" stroke-linecap="round"/>
<path d="M97.1523 17.8164C97.1443 17.81 97.1324 17.8128 97.1228 17.8125C97.1117 17.8122 97.099 17.8046 97.0885 17.8008C97.0712 17.7945 97.0642 17.7739 97.0469 17.7695" stroke="#3FD2C7" stroke-linecap="round"/>
<path d="M97.168 17.6875C97.1453 17.6824 97.1205 17.6789 97.0985 17.671C97.0917 17.6686 97.0899 17.6641 97.082 17.6641" stroke="#3FD2C7" stroke-linecap="round"/>
<path d="M97.1523 17.9375C97.1428 17.9366 97.1128 17.938 97.1055 17.9319C97.0899 17.9187 97.0855 17.8979 97.079 17.8798C97.0724 17.8614 97.0286 17.8661 97.0117 17.8594" stroke="#3FD2C7" stroke-linecap="round"/>
<path d="M97.1367 18.0742C97.1025 18.0814 97.0734 18.0859 97.0391 18.0859C97.0295 18.0859 97.0179 18.0842 97.0091 18.0883C96.987 18.0988 96.9635 18.1044 96.9414 18.1133" stroke="#3FD2C7" stroke-linecap="round"/>
<path d="M97.0273 18.1914C97.0114 18.1929 96.9971 18.203 96.9813 18.2062C96.9683 18.2088 96.9577 18.2103 96.949 18.2205C96.9439 18.2264 96.9292 18.2266 96.9219 18.2266C96.9118 18.2266 96.9162 18.2344 96.9062 18.2344" stroke="#3FD2C7" stroke-linecap="round"/>
<path d="M96.9023 18.6133H96.9766" stroke="#3FD2C7" stroke-linecap="round"/>
<path d="M97 18.5665C96.9869 18.577 96.9674 18.5673 96.9531 18.5665C96.943 18.5659 96.9433 18.5677 96.9319 18.5734C96.9061 18.5863 96.8822 18.5916 96.8555 18.5782" stroke="#3FD2C7" stroke-linecap="round"/>
<path d="M97.043 18.3865C97.0267 18.3813 96.9968 18.377 96.9813 18.3865C96.9753 18.3902 96.9648 18.3917 96.9648 18.4002C96.9648 18.413 96.9574 18.4046 96.9531 18.4121C96.9444 18.4274 96.9291 18.4169 96.9173 18.4275C96.908 18.4359 96.8867 18.4471 96.875 18.4529" stroke="#3FD2C7" stroke-linecap="round"/>
<path d="M96.9141 18.8955C96.9044 18.8877 96.8848 18.8916 96.8728 18.8916C96.8586 18.8916 96.8478 18.8994 96.8359 18.8994" stroke="#3FD2C7" stroke-linecap="round"/>
<path d="M96.8867 18.8011C96.8854 18.7907 96.8346 18.7932 96.8242 18.7932" stroke="#3FD2C7" stroke-linecap="round"/>
<path d="M96.8477 18.9727C96.849 18.985 96.8515 18.9793 96.8403 18.9863C96.8343 18.9901 96.8267 18.9929 96.8203 18.9961" stroke="#3FD2C7" stroke-linecap="round"/>
<path d="M96.9881 19.1914C96.9546 19.184 96.9187 19.1836 96.8844 19.1836C96.8672 19.1836 96.8532 19.1906 96.8375 19.1951C96.8316 19.1968 96.8263 19.1992 96.8201 19.1992C96.8064 19.1992 96.8123 19.1626 96.8123 19.1523" stroke="#3FD2C7" stroke-linecap="round"/>
<path d="M97.0077 19.2734C96.9606 19.2734 96.9062 19.2745 96.861 19.2882C96.856 19.2897 96.8437 19.2995 96.8389 19.3038C96.825 19.3164 96.7878 19.3469 96.8124 19.3633" stroke="#3FD2C7" stroke-linecap="round"/>
<path d="M97.0157 19.5195C96.9906 19.5248 96.9727 19.5465 96.9493 19.5508C96.9355 19.5533 96.926 19.5709 96.912 19.5742C96.8987 19.5773 96.8675 19.588 96.8573 19.5977C96.8506 19.6039 96.8291 19.6229 96.8247 19.6053C96.818 19.5784 96.8358 19.5729 96.8399 19.6016" stroke="#3FD2C7" stroke-linecap="round"/>
<path d="M96.9805 19.9258C96.9583 19.9258 96.9362 19.9258 96.9141 19.9258C96.9051 19.9258 96.8969 19.9264 96.8889 19.9219C96.8839 19.919 96.8887 19.9131 96.8828 19.9102" stroke="#3FD2C7" stroke-linecap="round"/>
<path d="M97.2617 19.738C97.2167 19.718 97.1471 19.7302 97.0977 19.7302C97.0803 19.7302 97.0587 19.7171 97.043 19.7254C97.0358 19.7292 97.0351 19.7378 97.0258 19.7419C97.0191 19.7449 97.0155 19.7524 97.0078 19.7554C96.9751 19.7681 96.9575 19.7965 96.9162 19.7846C96.9064 19.7818 96.8863 19.7585 96.8828 19.7497C96.8767 19.7344 96.8672 19.7706 96.8672 19.7771" stroke="#3FD2C7" stroke-linecap="round"/>
<path d="M96.9023 19.7773C96.9004 19.7932 96.8407 19.7714 96.8329 19.77C96.8214 19.7679 96.7927 19.7656 96.793 19.7656" stroke="#3FD2C7" stroke-linecap="round"/>
<path d="M97.0742 20.0588C97.0545 20.0509 97.0344 20.0553 97.0161 20.0644C97.0043 20.0703 96.9923 20.0741 96.9796 20.0775C96.9629 20.0819 96.9523 20.0922 96.9375 20.0979C96.9252 20.1026 96.9273 20.1135 96.9121 20.1135C96.904 20.1135 96.9002 20.1213 96.8906 20.1213" stroke="#3FD2C7" stroke-linecap="round"/>
<path d="M96.9805 19.8486C96.9795 19.841 96.9473 19.8443 96.9414 19.8456C96.9272 19.8487 96.92 19.8574 96.908 19.8642C96.8982 19.8698 96.8918 19.8815 96.8811 19.8877C96.8758 19.8907 96.8626 19.9048 96.8594 19.9111" stroke="#3FD2C7" stroke-linecap="round"/>
<path d="M97.0586 19.6992C97.0254 19.6992 96.9929 19.7233 96.9666 19.7383C96.9516 19.7469 96.9313 19.7634 96.9188 19.7422C96.9106 19.7281 96.8751 19.727 96.8713 19.7441C96.87 19.75 96.8639 19.7596 96.8594 19.7639C96.8525 19.7703 96.8535 19.7456 96.8477 19.7383" stroke="#3FD2C7" stroke-linecap="round"/>
<path d="M97.1211 20.1523C97.0956 20.155 97.0788 20.1744 97.0595 20.1897C97.042 20.2034 97.0285 20.2161 97.0234 20.24C97.0207 20.2529 97.008 20.2748 96.9983 20.2828C96.9885 20.2907 96.9703 20.2969 96.9588 20.303C96.9497 20.3077 96.9443 20.3125 96.9336 20.3125" stroke="#3FD2C7" stroke-linecap="round"/>
<path d="M97.1952 20.3783C97.1992 20.3777 97.1959 20.3756 97.1935 20.3752C97.1782 20.3732 97.1611 20.3844 97.1472 20.3893C97.1296 20.3956 97.1044 20.3913 97.0889 20.4008C97.0749 20.4094 97.0618 20.4206 97.045 20.4254C97.0299 20.4297 97.0154 20.4514 97.0001 20.4581C96.9893 20.4629 96.9529 20.4603 96.9647 20.4603" stroke="#3FD2C7" stroke-linecap="round"/>
<path d="M97.0977 20.5664C97.1092 20.5679 97.0909 20.5877 97.0857 20.5896C97.0821 20.591 97.0612 20.5968 97.0595 20.5985C97.0563 20.6017 97.0604 20.6072 97.0543 20.6089C97.048 20.6107 97.0399 20.6094 97.0334 20.6094C97.0227 20.6094 97.0142 20.6099 97.0039 20.6133" stroke="#3FD2C7" stroke-linecap="round"/>
<path d="M97.3086 20.707C97.3072 20.7196 97.2792 20.7234 97.27 20.7263C97.2543 20.7313 97.2397 20.741 97.2246 20.7457C97.2085 20.7506 97.1828 20.759 97.1704 20.7715C97.1466 20.7953 97.1317 20.8203 97.0938 20.8203" stroke="#3FD2C7" stroke-linecap="round"/>
<path d="M105.047 22.5469C105.074 22.5837 105.104 22.6196 105.117 22.6641C105.119 22.6707 105.126 22.6869 105.131 22.6914C105.149 22.7076 105.158 22.7405 105.165 22.7626C105.182 22.8197 105.211 22.8612 105.211 22.9219" stroke="#3FD2C7" stroke-linecap="round"/>
<path d="M105.363 22.5078C105.414 22.5304 105.409 22.5967 105.438 22.6376C105.452 22.6586 105.463 22.6826 105.477 22.7031" stroke="#3FD2C7" stroke-linecap="round"/>
<path d="M105.211 22.6211C105.247 22.6347 105.248 22.6553 105.262 22.6855C105.267 22.6965 105.284 22.7127 105.285 22.7227C105.287 22.7354 105.314 22.7591 105.324 22.7652C105.338 22.7729 105.336 22.8014 105.336 22.8164" stroke="#3FD2C7" stroke-linecap="round"/>
<path d="M105.473 22.3984C105.491 22.4258 105.511 22.453 105.524 22.4824C105.526 22.4883 105.535 22.4902 105.538 22.4961C105.545 22.5085 105.557 22.518 105.564 22.5312C105.57 22.5424 105.585 22.5571 105.586 22.5703C105.586 22.5806 105.594 22.5904 105.602 22.5977" stroke="#3FD2C7" stroke-linecap="round"/>
<path d="M105.727 22.3359C105.761 22.3383 105.788 22.3639 105.797 22.3984" stroke="#3FD2C7" stroke-linecap="round"/>
<path d="M104.781 22.918C104.781 22.9435 104.798 22.9632 104.804 22.9865C104.808 22.998 104.809 23.0043 104.817 23.0148C104.821 23.0194 104.831 23.0373 104.832 23.043C104.833 23.0534 104.836 23.0656 104.836 23.076C104.836 23.0818 104.836 23.0849 104.84 23.0898C104.845 23.0971 104.84 23.106 104.845 23.1124C104.856 23.129 104.844 23.1581 104.855 23.1758" stroke="#3FD2C7" stroke-linecap="round"/>
<path d="M104.961 22.7578C104.978 22.7892 105.002 22.8323 105.01 22.8672C105.014 22.8836 105.014 22.9115 105.024 22.9249C105.047 22.9554 105.07 22.9862 105.07 23.0273" stroke="#3FD2C7" stroke-linecap="round"/>
<path d="M104.84 22.9766C104.853 22.9899 104.864 23.0077 104.878 23.0195C104.883 23.0238 104.882 23.0304 104.887 23.0352C104.894 23.0431 104.911 23.0532 104.914 23.0645C104.916 23.0754 104.926 23.0753 104.93 23.0842C104.936 23.1005 104.949 23.0935 104.957 23.1055" stroke="#3FD2C7" stroke-linecap="round"/>
<path d="M105.031 22.957C105.031 22.9809 105.049 23.0014 105.055 23.0234" stroke="#3FD2C7" stroke-linecap="round"/>
<path d="M104.246 23.2539C104.266 23.2942 104.286 23.3316 104.297 23.3748C104.3 23.3869 104.304 23.4017 104.309 23.4132C104.313 23.425 104.32 23.4552 104.33 23.4627C104.338 23.4686 104.34 23.4722 104.344 23.4805" stroke="#3FD2C7" stroke-linecap="round"/>
<path d="M104.605 23.1758C104.632 23.2196 104.65 23.2595 104.668 23.3047" stroke="#3FD2C7" stroke-linecap="round"/>
<path d="M104.422 23.2383C104.436 23.2535 104.453 23.27 104.462 23.2891C104.466 23.2972 104.466 23.3083 104.471 23.316C104.476 23.3243 104.482 23.3279 104.484 23.3383C104.487 23.3502 104.493 23.3931 104.504 23.3984" stroke="#3FD2C7" stroke-linecap="round"/>
<path d="M103.93 23.4297C103.926 23.4629 103.941 23.4885 103.949 23.5195C103.954 23.5401 103.957 23.5557 103.967 23.574C103.978 23.5939 103.996 23.6127 103.996 23.6367" stroke="#3FD2C7" stroke-linecap="round"/>
<path d="M104.102 23.418C104.149 23.4338 104.164 23.45 104.164 23.4939C104.164 23.505 104.162 23.5253 104.17 23.5347C104.176 23.5416 104.184 23.5486 104.184 23.5586" stroke="#3FD2C7" stroke-linecap="round"/>
<path d="M103.469 23.6211C103.496 23.6792 103.523 23.7344 103.543 23.793" stroke="#3FD2C7" stroke-linecap="round"/>
<path d="M103.652 23.5156C103.671 23.5374 103.679 23.5498 103.687 23.5751C103.689 23.5846 103.69 23.5888 103.694 23.5977C103.698 23.6045 103.695 23.6136 103.698 23.6211C103.701 23.6273 103.703 23.6358 103.703 23.6426C103.703 23.6526 103.717 23.676 103.727 23.6797C103.74 23.6852 103.746 23.7137 103.75 23.7266" stroke="#3FD2C7" stroke-linecap="round"/>
<path d="M103.84 23.5547C103.862 23.5587 103.873 23.5609 103.875 23.5822C103.877 23.5962 103.883 23.6087 103.883 23.623C103.883 23.6406 103.883 23.6582 103.883 23.6758" stroke="#3FD2C7" stroke-linecap="round"/>
<path d="M103.258 23.7305C103.256 23.752 103.251 23.7866 103.265 23.8056C103.276 23.8209 103.266 23.8567 103.281 23.8672" stroke="#3FD2C7" stroke-linecap="round"/>
<path d="M103.422 23.7539C103.432 23.7719 103.449 23.7982 103.449 23.8203" stroke="#3FD2C7" stroke-linecap="round"/>
<path d="M103.613 23.7383C103.613 23.7505 103.613 23.7635 103.625 23.7695" stroke="#3FD2C7" stroke-linecap="round"/>
<path d="M104.719 23.0508C104.739 23.0718 104.778 23.1002 104.784 23.1319C104.786 23.1388 104.793 23.1559 104.787 23.1619C104.774 23.1751 104.771 23.2148 104.797 23.2148" stroke="#3FD2C7" stroke-linecap="round"/>
<path d="M102.559 23.6797C102.575 23.7281 102.602 23.781 102.602 23.8333C102.602 23.8531 102.602 23.8728 102.602 23.8926C102.602 23.9153 102.592 23.9648 102.605 23.9844" stroke="#3FD2C7" stroke-linecap="round"/>
<path d="M102.91 23.7305C102.923 23.7682 102.933 23.8197 102.926 23.8611C102.924 23.871 102.911 23.8784 102.91 23.8876C102.91 23.9019 102.899 23.897 102.895 23.9062" stroke="#3FD2C7" stroke-linecap="round"/>
<path d="M102.664 23.8477C102.685 23.8692 102.699 23.8967 102.699 23.9277C102.699 23.9359 102.707 23.9392 102.707 23.9475C102.707 23.9618 102.713 23.9655 102.723 23.9766" stroke="#3FD2C7" stroke-linecap="round"/>
<path d="M102.871 23.7968C102.878 23.7911 102.901 23.7994 102.902 23.8085C102.904 23.8164 102.911 23.825 102.913 23.8341C102.917 23.8493 102.918 23.8625 102.918 23.8788C102.918 23.8868 102.922 23.9415 102.93 23.9335" stroke="#3FD2C7" stroke-linecap="round"/>
<path d="M103.07 23.6953C103.097 23.7268 103.098 23.7403 103.098 23.7773C103.098 23.7891 103.098 23.8008 103.098 23.8125C103.098 23.8366 103.09 23.8566 103.09 23.8789" stroke="#3FD2C7" stroke-linecap="round"/>
<path d="M102.941 23.8125C102.953 23.8213 102.984 23.8372 102.988 23.8533C102.99 23.8587 102.988 23.8657 102.988 23.8713C102.99 23.8834 102.991 23.8983 102.994 23.9099C102.996 23.917 103.002 23.925 103.007 23.9306C103.009 23.9324 103.008 23.9175 103.008 23.9141" stroke="#3FD2C7" stroke-linecap="round"/>
<path d="M103.117 23.7153C103.129 23.7086 103.129 23.7829 103.129 23.7891C103.129 23.8019 103.128 23.8192 103.135 23.8305C103.148 23.8548 103.16 23.8681 103.16 23.895" stroke="#3FD2C7" stroke-linecap="round"/>
<path d="M102.164 23.6797C102.169 23.7212 102.181 23.7697 102.166 23.8105C102.162 23.8225 102.154 23.8395 102.152 23.8516C102.149 23.8739 102.135 23.895 102.133 23.918C102.131 23.9338 102.118 23.9508 102.117 23.9657C102.117 23.9746 102.109 24.0202 102.109 23.9922" stroke="#3FD2C7" stroke-linecap="round"/>
<path d="M102.395 23.6094C102.397 23.6502 102.391 23.6881 102.391 23.7285C102.391 23.7443 102.383 23.752 102.383 23.7678C102.382 23.7854 102.367 23.7951 102.367 23.8125C102.367 23.8262 102.367 23.8398 102.367 23.8535C102.367 23.8808 102.371 23.9066 102.371 23.9336C102.371 23.9439 102.373 23.998 102.375 23.9961" stroke="#3FD2C7" stroke-linecap="round"/>
<path d="M102.473 23.8047C102.481 23.8393 102.465 23.8886 102.482 23.9199C102.488 23.9299 102.484 23.9476 102.484 23.959C102.484 23.9722 102.492 23.9815 102.492 23.9961" stroke="#3FD2C7" stroke-linecap="round"/>
<path d="M102.121 23.8242C102.123 23.8612 102.142 23.9014 102.162 23.9319C102.179 23.9581 102.146 23.9893 102.164 24.0156" stroke="#3FD2C7" stroke-linecap="round"/>
<path d="M102.332 23.7344C102.361 23.7774 102.363 23.8122 102.356 23.8609C102.353 23.8799 102.338 23.8909 102.333 23.9084C102.323 23.9409 102.309 23.9732 102.309 24.0078" stroke="#3FD2C7" stroke-linecap="round"/>
<path d="M101.652 23.7188C101.685 23.7876 101.697 23.8594 101.699 23.9345C101.7 23.9582 101.704 23.9895 101.711 24.0117" stroke="#3FD2C7" stroke-linecap="round"/>
<path d="M101.992 23.7969C101.992 23.8226 102 23.8681 101.987 23.8915C101.981 23.9008 101.977 23.9101 101.973 23.9199C101.97 23.9269 101.96 23.93 101.955 23.9366C101.946 23.9493 101.934 23.9526 101.934 23.9718C101.934 23.9877 101.934 24.0036 101.934 24.0195" stroke="#3FD2C7" stroke-linecap="round"/>
<path d="M101.465 23.7266C101.453 23.7543 101.439 23.7795 101.431 23.8082C101.429 23.818 101.428 23.8281 101.425 23.8377C101.423 23.8436 101.418 23.8571 101.414 23.8615C101.407 23.8694 101.41 23.8866 101.41 23.8967C101.41 23.9117 101.387 23.9844 101.402 23.9922" stroke="#3FD2C7" stroke-linecap="round"/>
<path d="M101.637 23.8359C101.637 23.8612 101.623 23.8859 101.617 23.9106C101.614 23.9252 101.611 23.9416 101.602 23.954C101.597 23.9616 101.59 23.9714 101.59 23.9822C101.589 24.0096 101.586 24.013 101.562 23.9922" stroke="#3FD2C7" stroke-linecap="round"/>
<path d="M101.246 23.7305C101.246 23.7845 101.249 23.8371 101.231 23.8865C101.22 23.9159 101.193 23.9407 101.184 23.9688" stroke="#3FD2C7" stroke-linecap="round"/>
<path d="M100.93 23.75C100.925 23.791 100.921 23.8337 100.914 23.8733C100.912 23.8809 100.904 23.8873 100.9 23.8945C100.897 23.9007 100.89 23.9243 100.887 23.9258" stroke="#3FD2C7" stroke-linecap="round"/>
<path d="M101 23.8242C101 23.8667 100.996 23.9072 100.996 23.9492" stroke="#3FD2C7" stroke-linecap="round"/>
<path d="M100.648 23.5781C100.618 23.5863 100.573 23.5868 100.548 23.6081C100.53 23.6235 100.503 23.6372 100.488 23.6547C100.476 23.6683 100.463 23.6845 100.447 23.6934C100.436 23.6994 100.41 23.7122 100.403 23.7244C100.397 23.7351 100.384 23.743 100.38 23.7569C100.376 23.7701 100.375 23.7828 100.375 23.7969" stroke="#3FD2C7" stroke-linecap="round"/>
<path d="M100.75 23.6914C100.759 23.7336 100.726 23.792 100.69 23.8164C100.678 23.8249 100.661 23.8351 100.655 23.8477C100.65 23.8585 100.652 23.871 100.652 23.8828" stroke="#3FD2C7" stroke-linecap="round"/>
<path d="M100.523 23.7109C100.521 23.7284 100.509 23.7386 100.5 23.7522C100.494 23.7621 100.497 23.7744 100.493 23.7852C100.488 23.7964 100.492 23.8157 100.492 23.8281" stroke="#3FD2C7" stroke-linecap="round"/>
<path d="M99.8125 23.1367C99.7911 23.1703 99.7563 23.1943 99.7361 23.2292C99.7248 23.2487 99.7114 23.2689 99.7031 23.2899C99.6977 23.3038 99.6929 23.3179 99.6849 23.3305C99.6752 23.3458 99.6543 23.3586 99.6521 23.3767C99.6501 23.3941 99.6257 23.4101 99.6168 23.4247C99.6103 23.4352 99.5907 23.4568 99.5898 23.4679C99.5893 23.4745 99.5791 23.4889 99.5742 23.4922" stroke="#3FD2C7" stroke-linecap="round"/>
<path d="M100.301 23.3828C100.3 23.4096 100.287 23.4335 100.273 23.4553C100.253 23.4855 100.227 23.5034 100.194 23.5189C100.15 23.539 100.107 23.5644 100.075 23.599C100.059 23.6163 100.056 23.6334 100.045 23.6526C100.036 23.6674 100.018 23.667 100.012 23.6797" stroke="#3FD2C7" stroke-linecap="round"/>
<path d="M100.309 23.5352C100.307 23.5684 100.3 23.5943 100.281 23.6213C100.276 23.6283 100.263 23.6483 100.262 23.6562C100.26 23.6734 100.246 23.6853 100.246 23.7049C100.246 23.7131 100.243 23.7388 100.234 23.7422C100.227 23.7453 100.234 23.7525 100.23 23.7569C100.227 23.7598 100.215 23.7578 100.211 23.7578" stroke="#3FD2C7" stroke-linecap="round"/>
<path d="M99.9492 23.4492C99.9466 23.4779 99.9107 23.4972 99.8924 23.5156C99.8796 23.5284 99.8823 23.5504 99.872 23.5634C99.8688 23.5673 99.8727 23.5737 99.8691 23.5779C99.8649 23.583 99.8592 23.5867 99.8563 23.5929C99.8513 23.6039 99.8372 23.6072 99.8281 23.6133" stroke="#3FD2C7" stroke-linecap="round"/>
<path d="M99.793 23.2969C99.793 23.3242 99.7852 23.3486 99.7852 23.377C99.7852 23.3898 99.768 23.3946 99.7639 23.4045C99.7618 23.4096 99.7542 23.4147 99.7539 23.4188C99.7532 23.4275 99.7539 23.4366 99.7539 23.4453C99.7539 23.4537 99.7577 23.4743 99.75 23.4796C99.746 23.4824 99.7362 23.5005 99.7346 23.5061C99.7287 23.5269 99.7217 23.5458 99.7148 23.5664" stroke="#3FD2C7" stroke-linecap="round"/>
<path d="M99 22.5039C98.9388 22.5402 98.8816 22.5711 98.8116 22.5853C98.7994 22.5878 98.7815 22.5866 98.7702 22.5922C98.7622 22.5962 98.7552 22.6043 98.7476 22.6092C98.7001 22.6393 98.6446 22.6585 98.5951 22.6853C98.5857 22.6904 98.5687 22.6914 98.5616 22.6979C98.5444 22.7137 98.5196 22.7239 98.4967 22.7268C98.4827 22.7285 98.4917 22.7446 98.4727 22.7383" stroke="#3FD2C7" stroke-linecap="round"/>
<path d="M98.4727 22.5977C98.4648 22.5985 98.4623 22.6056 98.4586 22.6115C98.4492 22.6267 98.4287 22.6396 98.4128 22.6467C98.3967 22.6539 98.3839 22.6663 98.3672 22.6719" stroke="#3FD2C7" stroke-linecap="round"/>
<path d="M98.6133 22.7227C98.6068 22.7339 98.5842 22.796 98.5616 22.7969C98.5403 22.7977 98.5391 22.8099 98.5391 22.8281" stroke="#3FD2C7" stroke-linecap="round"/>
<path d="M98.7109 22.8906C98.7354 22.8922 98.7059 22.9419 98.7031 22.9531" stroke="#3FD2C7" stroke-linecap="round"/>
<path d="M98.8555 22.9531C98.866 22.9702 98.8862 23.003 98.872 23.0243C98.8654 23.0341 98.8633 23.0545 98.8633 23.0664" stroke="#3FD2C7" stroke-linecap="round"/>
<path d="M99.0312 23.0078C99.053 23.0365 99.0508 23.0755 99.0508 23.1111C99.0508 23.126 99.0559 23.1493 99.0488 23.1621C99.0459 23.1673 99.0482 23.1722 99.0467 23.1775C99.0453 23.1822 99.0276 23.1797 99.0234 23.1797" stroke="#3FD2C7" stroke-linecap="round"/>
<path d="M99.1797 23.1172C99.187 23.1379 99.2042 23.2037 99.1884 23.2274C99.1813 23.2381 99.1762 23.2567 99.1719 23.2695" stroke="#3FD2C7" stroke-linecap="round"/>
<path d="M99.2852 23.2383C99.2911 23.2745 99.3061 23.3085 99.2852 23.3398" stroke="#3FD2C7" stroke-linecap="round"/>
<path d="M99.332 23.3359C99.3462 23.3368 99.3477 23.37 99.3477 23.3828" stroke="#3FD2C7" stroke-linecap="round"/>
<path d="M99.4336 23.3711C99.4387 23.3817 99.4453 23.3924 99.4453 23.4043C99.4453 23.4127 99.4445 23.4187 99.4492 23.4258" stroke="#3FD2C7" stroke-linecap="round"/>
<path d="M97.6484 21.6406C97.6425 21.6964 97.5894 21.7046 97.5469 21.7188" stroke="#3FD2C7" stroke-linecap="round"/>
<path d="M97.8984 21.6836C97.8823 21.7302 97.8487 21.7677 97.8203 21.8077C97.8116 21.82 97.7994 21.8327 97.7891 21.8438C97.7795 21.8539 97.7751 21.8677 97.7665 21.8789C97.7547 21.8943 97.746 21.9134 97.7283 21.9227C97.7173 21.9286 97.6992 21.9254 97.6992 21.9102" stroke="#3FD2C7" stroke-linecap="round"/>
<path d="M97.7266 21.6836C97.7266 21.7237 97.7334 21.7567 97.6979 21.7812C97.6858 21.7897 97.6721 21.7983 97.6602 21.8056C97.6463 21.814 97.6488 21.8345 97.6328 21.8398" stroke="#3FD2C7" stroke-linecap="round"/>
<path d="M97.8008 21.7852C97.8008 21.8269 97.8012 21.8638 97.77 21.8924C97.7541 21.9069 97.6953 21.9169 97.6953 21.9414" stroke="#3FD2C7" stroke-linecap="round"/>
<path d="M97.8828 21.8867C97.8976 21.9328 97.8702 21.9749 97.834 22.0039C97.8204 22.0148 97.8144 22.0547 97.793 22.0547" stroke="#3FD2C7" stroke-linecap="round"/>
<path d="M97.8828 22.0273C97.8852 22.052 97.8874 22.0703 97.8826 22.0918C97.8807 22.1002 97.8718 22.1053 97.8694 22.1137C97.8672 22.1212 97.8701 22.1333 97.8633 22.1367" stroke="#3FD2C7" stroke-linecap="round"/>
<path d="M97.9922 22.1055C97.9909 22.1215 97.9921 22.1414 97.9874 22.1571C97.9856 22.1632 97.9787 22.1658 97.977 22.1719C97.9748 22.1797 97.9706 22.1816 97.9679 22.1884C97.9638 22.1987 97.9545 22.2044 97.9477 22.2127C97.942 22.2196 97.9477 22.2271 97.9375 22.2305" stroke="#3FD2C7" stroke-linecap="round"/>
<path d="M98.0547 22.1641C98.063 22.2015 98.0677 22.2254 98.0577 22.2591C98.0541 22.2713 98.0469 22.2804 98.041 22.291C98.0387 22.2951 98.0364 22.3152 98.033 22.3162C98.0238 22.3188 98.0109 22.3178 98.0078 22.3086" stroke="#3FD2C7" stroke-linecap="round"/>
<path d="M98.0664 22.2773C98.0678 22.31 98.0703 22.3423 98.0703 22.375" stroke="#3FD2C7" stroke-linecap="round"/>
<path d="M98.2188 22.4258C98.2154 22.4313 98.1758 22.513 98.1758 22.4648" stroke="#3FD2C7" stroke-linecap="round"/>
<path d="M98.2109 22.4805C98.2136 22.4991 98.2148 22.5165 98.2148 22.5352" stroke="#3FD2C7" stroke-linecap="round"/>
<path d="M97.2268 20.9375C97.2203 20.9569 97.1928 20.9923 97.1673 20.9835C97.1421 20.9748 97.1452 20.918 97.176 20.918" stroke="#3FD2C7" stroke-linecap="round"/>
<path d="M97.2657 21.0117C97.2611 21.0333 97.2539 21.0781 97.2275 21.0781C97.2044 21.0781 97.2188 21.031 97.2188 21.0156" stroke="#3FD2C7" stroke-linecap="round"/>
<path d="M97.25 21.0508C97.2523 21.0767 97.26 21.1115 97.25 21.1367C97.2475 21.1429 97.242 21.1466 97.2391 21.1523C97.2363 21.1581 97.2363 21.1651 97.2305 21.168" stroke="#3FD2C7" stroke-linecap="round"/>
<path d="M97.2734 21.1992C97.2767 21.2194 97.2848 21.2344 97.2617 21.2344" stroke="#3FD2C7" stroke-linecap="round"/>
<path d="M97.3712 21.3945C97.3712 21.4013 97.3703 21.4219 97.3615 21.4219C97.3406 21.4219 97.3648 21.4099 97.3673 21.4023" stroke="#3FD2C7" stroke-linecap="round"/>
<path d="M97.6562 21.3633C97.6562 21.3791 97.665 21.4219 97.6389 21.4219C97.6242 21.4219 97.6114 21.4258 97.5977 21.4258C97.5813 21.4258 97.5773 21.4393 97.574 21.451C97.5728 21.455 97.5677 21.458 97.5666 21.4629C97.5646 21.4718 97.5586 21.4648 97.5551 21.4709C97.5491 21.4814 97.5352 21.4743 97.5234 21.4774C97.503 21.4828 97.5025 21.4981 97.4883 21.5069C97.4808 21.5116 97.4844 21.5309 97.4844 21.5391C97.4844 21.5563 97.4682 21.5625 97.4531 21.5625" stroke="#3FD2C7" stroke-linecap="round"/>
<path d="M187.094 32.1301C188.623 32.2218 190.138 32.3495 191.657 32.1083C192.341 31.9995 193.044 32.0531 193.717 31.8848" stroke="#3FD2C7" stroke-linecap="round"/>
<path d="M187.977 33.995C189.693 33.884 191.43 33.7779 193.134 33.5289C193.443 33.4837 193.747 33.4062 194.06 33.4062" stroke="#3FD2C7" stroke-linecap="round"/>
<path d="M187.683 33.9949C189.83 33.8412 192.06 33.8118 194.181 33.3926C194.757 33.2786 193.807 33.3081 193.766 33.3081C191.82 33.3081 189.874 33.3081 187.928 33.3081" stroke="#3FD2C7" stroke-linecap="round"/>
<path d="M187.732 33.2103C189.395 32.9955 191.06 32.7559 192.712 32.4662C192.77 32.4561 192.934 32.4559 192.883 32.4253C192.817 32.3847 192.727 32.4267 192.649 32.4281C192.513 32.4304 192.376 32.4318 192.24 32.4362C191.572 32.4578 190.907 32.5014 190.242 32.578C189.51 32.6623 188.786 32.7944 188.048 32.8178C187.879 32.8232 187.813 32.8941 187.645 32.9159C187.39 32.9489 186.622 33.0086 186.879 33.0086C187.003 33.0086 187.187 32.9425 187.296 32.9105C187.938 32.722 188.576 32.5306 189.223 32.3572C190.09 32.1248 190.947 31.9015 191.829 31.7412C191.908 31.7268 192.147 31.6895 192.066 31.6895C190.737 31.6895 189.383 31.7385 188.076 31.7385" stroke="#3FD2C7" stroke-linecap="round"/>
<path d="M190.97 33.6515C190.942 33.6481 190.921 33.5554 190.921 33.5834C190.921 33.6742 190.921 33.7651 190.921 33.8559C190.921 34.1021 190.921 34.3483 190.921 34.5945C190.921 34.8667 190.884 35.1616 190.97 35.4176" stroke="#3FD2C7"/>
<path d="M189.498 31.3458C189.498 31.179 189.535 30.9567 189.487 30.7953C189.449 30.6656 189.449 30.548 189.449 30.4137C189.449 30.2888 189.351 30.2098 189.351 30.0703" stroke="#3FD2C7"/>
<path d="M188.971 31.1868C188.932 31.5377 188.971 30.4807 188.971 30.1277C188.971 30.1001 188.956 30.0844 188.956 30.0594C188.956 30.0353 188.956 30.0112 188.956 29.9871C188.956 29.9609 188.942 29.9398 188.942 29.9112C188.942 29.8872 188.942 29.8631 188.942 29.839C188.942 29.7424 188.958 29.6298 188.927 29.5391" stroke="#3FD2C7"/>
<path d="M189.259 30.9551C189.015 30.9876 188.784 31.002 188.571 31.1273C188.547 31.1412 188.563 31.1627 188.583 31.1711C188.634 31.1924 188.689 31.2016 188.743 31.2116C188.862 31.2341 188.983 31.2566 189.104 31.2622C189.125 31.2632 189.514 31.273 189.467 31.1831C189.459 31.1664 189.434 31.1668 189.419 31.1659C189.305 31.1591 189.189 31.1647 189.075 31.1647C188.958 31.1647 188.84 31.1613 188.725 31.1791" stroke="#3FD2C7"/>
<path d="M188.891 31.1273C189.172 31.1141 189.454 31.1084 189.736 31.1049C189.87 31.1032 190.001 31.1018 190.134 31.1201C190.4 31.1568 190.669 31.165 190.937 31.1587C191.282 31.1505 191.624 31.084 191.97 31.084" stroke="#3FD2C7"/>
<path d="M189.057 31.2149C189.266 31.1844 189.478 31.1726 189.688 31.1546C190.003 31.1276 190.319 31.101 190.633 31.0639C190.838 31.0398 191.043 30.9972 191.248 30.9844C191.605 30.9622 191.967 30.9547 192.324 30.9547C192.365 30.9547 192.405 30.9561 192.445 30.9539C192.489 30.9514 192.532 30.9346 192.575 30.933C192.672 30.9295 192.769 30.9304 192.866 30.9258" stroke="#3FD2C7"/>
<path d="M189.23 30.5865C189.499 30.5303 189.784 30.5215 190.058 30.5215C190.206 30.5215 190.354 30.5215 190.502 30.5215C190.728 30.5215 190.953 30.5215 191.179 30.5215C191.604 30.5215 192.029 30.5215 192.454 30.5215" stroke="#3FD2C7"/>
<path d="M189.317 30.1443C189.387 30.1443 189.457 30.1443 189.527 30.1443C189.559 30.1443 189.588 30.1311 189.619 30.1299C189.683 30.1273 189.741 30.1154 189.806 30.1154C189.961 30.1154 190.117 30.1154 190.273 30.1154C190.39 30.1154 190.506 30.1154 190.623 30.1154C190.857 30.1154 191.09 30.0873 191.325 30.0865C191.752 30.0852 192.179 30.0865 192.606 30.0865" stroke="#3FD2C7"/>
<path d="M190.289 29.9618C190.373 29.9618 190.455 29.954 190.538 29.954C190.603 29.954 190.667 29.954 190.731 29.954C190.794 29.954 190.854 29.9384 190.917 29.9384C190.974 29.9384 191.032 29.9384 191.09 29.9384C191.238 29.9384 191.386 29.9345 191.534 29.9345C191.563 29.9345 191.597 29.9394 191.625 29.9306C191.648 29.9233 191.673 29.921 191.697 29.9191C191.726 29.9167 191.756 29.9188 191.785 29.9188" stroke="#3FD2C7" stroke-linecap="square"/>
<path d="M191.785 29.8789H191.816" stroke="#3FD2C7" stroke-linecap="square"/>
<path d="M191.598 29.8594H191.781" stroke="#3FD2C7" stroke-linecap="square"/>
<path d="M191.176 29.8672C191.132 29.8672 191.09 29.875 191.045 29.875C190.994 29.875 190.943 29.8789 190.892 29.8789C190.712 29.8789 190.532 29.8789 190.352 29.8789C190.194 29.8789 190.037 29.875 189.878 29.875C189.848 29.875 189.817 29.875 189.786 29.875C189.758 29.875 189.731 29.8603 189.702 29.8594C189.664 29.8581 189.626 29.8609 189.587 29.8555C189.562 29.8519 189.534 29.8561 189.508 29.8511C189.5 29.8494 189.498 29.8438 189.488 29.8438" stroke="#3FD2C7" stroke-linecap="square"/>
<path d="M188.402 29.8906C188.422 29.8906 188.439 29.8984 188.459 29.8984C188.492 29.8984 188.525 29.8984 188.559 29.8984" stroke="#3FD2C7" stroke-linecap="square"/>
<path d="M188.523 29.8789C188.561 29.8755 188.599 29.875 188.637 29.875" stroke="#3FD2C7" stroke-linecap="square"/>
<path d="M188.637 29.8555H188.66" stroke="#3FD2C7" stroke-linecap="square"/>
<path d="M187.951 35.6721C188.826 35.6444 189.701 35.6156 190.577 35.5921C190.881 35.5839 191.182 35.5735 191.484 35.5372C191.639 35.5187 191.795 35.4994 191.949 35.4749C192.058 35.4575 191.993 35.4547 191.928 35.4544C191.155 35.4508 190.382 35.4544 189.609 35.4544C189.115 35.4544 188.613 35.478 188.121 35.4302C187.87 35.406 187.62 35.3722 187.371 35.3382C187.237 35.3199 187.072 35.2968 186.935 35.2749C186.895 35.2685 186.791 35.268 186.818 35.2377C186.901 35.1456 187.254 35.0908 187.343 35.0694C187.911 34.9324 188.492 34.8485 189.069 34.7606C189.593 34.681 190.117 34.6079 190.642 34.5393C190.965 34.497 191.311 34.4777 191.629 34.3951C191.637 34.393 191.655 34.395 191.653 34.3867C191.645 34.3541 191.586 34.3929 191.552 34.3979C190.922 34.493 190.293 34.5948 189.662 34.6844C189.019 34.7757 188.374 34.8636 187.725 34.9057C187.575 34.9155 187.123 34.9187 187.273 34.9187C188.227 34.9187 189.18 34.9396 190.133 34.9578C190.523 34.9652 190.912 34.9689 191.302 34.9689C191.467 34.9689 191.642 34.984 191.806 34.9615C191.992 34.9361 192.178 34.9002 192.361 34.8648C192.411 34.8553 192.553 34.8346 192.505 34.8201C192.339 34.77 192.16 34.7883 191.988 34.7829C191.383 34.7642 190.778 34.7703 190.174 34.7578C190.077 34.7558 189.977 34.7671 189.882 34.7476C189.865 34.7441 189.894 34.71 189.91 34.7039C190.113 34.6265 190.885 34.4504 190.967 34.4314C191.515 34.3046 192.073 34.1655 192.633 34.0966C192.719 34.086 192.749 34.0913 192.665 34.1301C192.605 34.1574 192.186 34.322 192.177 34.3254C191.329 34.6489 190.453 34.8814 189.596 35.181C189.501 35.2143 189.378 35.2468 189.287 35.2963C189.197 35.3448 189.49 35.3038 189.592 35.3038C190.49 35.3038 191.387 35.3038 192.285 35.3038C192.339 35.3038 192.557 35.2789 192.629 35.3075C192.654 35.3172 192.58 35.3283 192.555 35.3354C192.506 35.349 192.253 35.4137 192.231 35.4191C191.358 35.6295 190.468 35.7108 189.586 35.8711C189.371 35.9102 189.17 35.9883 188.958 36.0366C188.625 36.1125 188.291 36.123 187.953 36.1408C187.752 36.1514 188.358 36.1511 188.554 36.1947C188.671 36.2208 188.787 36.2441 188.905 36.2673C189.129 36.311 189.339 36.3082 189.568 36.3082C190.675 36.3082 193.997 36.3249 192.89 36.3249" stroke="#3FD2C7" stroke-linecap="square"/>
<path d="M192.206 36.6549C192.138 36.6587 192.072 36.6719 192.004 36.6743C191.984 36.675 191.943 36.6873 191.986 36.6873C192.023 36.6873 191.998 36.695 191.973 36.6988C191.952 36.702 191.935 36.7067 191.915 36.7067C191.822 36.7067 191.73 36.7067 191.637 36.7067C191.417 36.7067 191.196 36.7067 190.976 36.7067C190.809 36.7067 190.641 36.7067 190.474 36.7067C190.4 36.7067 190.326 36.7067 190.252 36.7067C190.199 36.7067 190.15 36.6938 190.097 36.6938C190.016 36.6938 189.931 36.6947 189.852 36.6779C189.768 36.6602 189.678 36.6484 189.593 36.6484C189.549 36.6484 189.529 36.6754 189.487 36.6873C189.481 36.689 189.469 36.7013 189.478 36.7067C189.495 36.7173 189.523 36.7132 189.542 36.7132C189.567 36.7132 189.64 36.7132 189.615 36.7132C189.579 36.7132 189.543 36.7132 189.508 36.7132C189.285 36.7132 189.062 36.7132 188.839 36.7132" stroke="#3FD2C7" stroke-linecap="square"/>
<path d="M192.336 36.7129H192.433" stroke="#3FD2C7" stroke-linecap="square"/>
<path d="M190.102 36.6367H190.244" stroke="#3FD2C7" stroke-linecap="square"/>
<path d="M190.082 36.6808C190.055 36.6808 190.028 36.6808 190.001 36.6808C189.986 36.6808 189.98 36.6679 189.962 36.6679C189.949 36.6679 189.922 36.6629 189.91 36.6693C189.892 36.6789 189.934 36.6873 189.94 36.6873" stroke="#3FD2C7" stroke-linecap="square"/>
<path d="M189.927 36.6428C189.905 36.6428 189.871 36.636 189.852 36.6464C189.833 36.6567 189.822 36.6587 189.823 36.6817C189.824 36.694 189.857 36.6881 189.865 36.6881C189.882 36.6881 189.888 36.6919 189.903 36.7004C189.908 36.703 189.876 36.714 189.869 36.714C189.837 36.714 189.903 36.7076 189.914 36.7076" stroke="#3FD2C7" stroke-linecap="square"/>
<path d="M189.574 36.2227C189.592 36.2404 189.593 36.2757 189.604 36.299C189.614 36.3222 189.628 36.3454 189.635 36.3711C189.64 36.3907 189.648 36.4076 189.648 36.428C189.648 36.4402 189.65 36.4536 189.648 36.4657C189.645 36.4774 189.637 36.4841 189.637 36.4959C189.637 36.5312 189.633 36.5698 189.633 36.6072C189.633 36.6333 189.623 36.6861 189.637 36.707" stroke="#3FD2C7" stroke-linecap="round"/>
<path d="M189.668 36.6523C189.677 36.6761 189.686 36.6961 189.695 36.7188" stroke="#3FD2C7" stroke-linecap="round"/>
</svg>
